<svg xmlns="http://www.w3.org/2000/svg" width="34" height="34" viewBox="0 0 34 34">
  <g id="gmail_icon" data-name="gmail icon" transform="translate(-0.214 -0.533)">
    <g id="Group_3787" data-name="Group 3787" transform="translate(0.214 0.533)">
      <g id="Group_3786" data-name="Group 3786" transform="translate(0)">
        <path id="Path_857" data-name="Path 857" d="M7.33,21.135a9.859,9.859,0,0,1,.522-3.156L2,13.6A16.788,16.788,0,0,0,2,28.661l5.851-4.384a9.863,9.863,0,0,1-.516-3.142" transform="translate(-0.214 -4.135)" fill="#fbbc05" fill-rule="evenodd"/>
        <path id="Path_858" data-name="Path 858" d="M18.235,7.488a10.2,10.2,0,0,1,6.4,2.241L29.7,4.783A17.6,17.6,0,0,0,2.623,10l5.854,4.375a10.233,10.233,0,0,1,9.757-6.89" transform="translate(-0.84 -0.533)" fill="#eb4335" fill-rule="evenodd"/>
        <path id="Path_859" data-name="Path 859" d="M18.235,35.246a10.233,10.233,0,0,1-9.757-6.89L2.623,32.731A17.382,17.382,0,0,0,18.235,42.2a16.783,16.783,0,0,0,11.334-4.237l-5.557-4.2a10.94,10.94,0,0,1-5.777,1.487" transform="translate(-0.84 -8.2)" fill="#34a853" fill-rule="evenodd"/>
        <path id="Path_860" data-name="Path 860" d="M40.318,22.824a13.8,13.8,0,0,0-.4-3.091H23.714V26.3h9.33a7.658,7.658,0,0,1-3.553,5.081l5.557,4.2a16.73,16.73,0,0,0,5.271-12.763" transform="translate(-6.318 -5.824)" fill="#4285f4" fill-rule="evenodd"/>
      </g>
    </g>
  </g>
</svg>
