<svg xmlns="http://www.w3.org/2000/svg" width="72.586" height="23.063" viewBox="0 0 72.586 23.063">
  <path id="Path_1066" data-name="Path 1066" d="M56.032,8.546c0-.168,0-.29,0-.412a.413.413,0,0,0-.453-.446q-.722,0-1.443,0a.416.416,0,0,0-.469.468q0,3.376,0,6.751a.416.416,0,0,0,.469.469c.448,0,.9,0,1.346,0,.418,0,.551-.132.552-.545,0-1.288.018-2.576-.01-3.863a1.12,1.12,0,0,1,.411-.944,2.088,2.088,0,0,1,1.651-.6,9.25,9.25,0,0,0,.974.034.392.392,0,0,0,.433-.424c.011-.357.011-.715,0-1.073a.4.4,0,0,0-.418-.421,4.366,4.366,0,0,0-2.5.636c-.168.108-.333.223-.547.367M25.913,11.517H25.9q0,1.668,0,3.336c0,.393.132.522.53.523H27.72c.408,0,.536-.128.536-.536,0-1.346,0-2.692,0-4.039,0-.18.054-.233.232-.231.735.009,1.47.005,2.2,0a.422.422,0,0,0,.476-.466c.006-.234,0-.468,0-.7,0-.382-.135-.514-.519-.514-.722,0-1.444-.005-2.166,0-.183,0-.246-.063-.227-.238.019-.194.018-.39.043-.583a1.114,1.114,0,0,1,.893-1.116,4.155,4.155,0,0,1,1.741-.066,3.906,3.906,0,0,0,.658.056.421.421,0,0,0,.476-.465c.005-.214,0-.429,0-.644a.466.466,0,0,0-.438-.524c-.242-.043-.488-.077-.734-.1a9.018,9.018,0,0,0-2.871.136,2.353,2.353,0,0,0-1.847,1.538A4.646,4.646,0,0,0,25.926,8.2c-.035,1.1-.012,2.211-.012,3.316M64.17,14.8a2.4,2.4,0,0,1-.5,1.046,1.116,1.116,0,0,1-1.073.368,7.779,7.779,0,0,0-.889-.092.4.4,0,0,0-.441.434c-.006.227,0,.455,0,.683a.445.445,0,0,0,.442.513c.614.063,1.229.134,1.844.14A2.382,2.382,0,0,0,65.8,16.54a7.961,7.961,0,0,0,.635-1.524c.647-2.276,1.26-4.56,1.885-6.843.086-.315-.048-.484-.381-.485q-.654,0-1.307,0A.614.614,0,0,0,66,8.162c-.045.149-.085.3-.126.451Q65.287,10.756,64.7,12.9c-.042.156-.113.194-.264.159a1.031,1.031,0,0,1-.592-.386,3.684,3.684,0,0,1-.595-1.221c-.337-1.08-.66-2.163-.99-3.245a.669.669,0,0,0-.689-.52c-.442,0-.884,0-1.326,0-.308,0-.436.176-.347.475.365,1.214.724,2.429,1.1,3.639a6.025,6.025,0,0,0,.952,1.932,2.494,2.494,0,0,0,1.585.983c.2.034.4.051.634.081m-26.681-.039c.011.063.017.087.018.113.024.387.147.5.533.5s.755,0,1.132,0c.343,0,.484-.142.484-.488q0-2.194,0-4.388a2.993,2.993,0,0,0-.306-1.376,2.776,2.776,0,0,0-1.944-1.431,7.2,7.2,0,0,0-2.346-.111,4.959,4.959,0,0,0-1.646.374,1.66,1.66,0,0,0-1.082,1.471c-.026.364.14.558.5.56.306,0,.611,0,.917,0a1.02,1.02,0,0,0,.809-.36,1.264,1.264,0,0,1,.331-.266,2.052,2.052,0,0,1,1.036-.226c.906.006,1.275.348,1.371,1.243.02.183-.033.24-.217.238-.722-.008-1.443,0-2.165,0a4.247,4.247,0,0,0-1.6.29,2.212,2.212,0,0,0-1.527,2.119,2.239,2.239,0,0,0,1.4,2.148,4.2,4.2,0,0,0,1.589.35,4.116,4.116,0,0,0,2.393-.563c.1-.059.2-.12.319-.2m6.567-2.775-.054,0c-.021-.066-.043-.131-.063-.2q-.508-1.71-1.016-3.42a.88.88,0,0,0-.854-.675c-.461-.013-.923-.007-1.385,0a.27.27,0,0,0-.3.306,1.134,1.134,0,0,0,.043.306c.056.2.124.4.188.6q.933,2.905,1.868,5.81a.9.9,0,0,0,.921.668c.286,0,.572,0,.858,0a.921.921,0,0,0,.971-.708q.607-1.915,1.207-3.831c.019-.062.045-.122.086-.233.043.124.068.19.089.257q.6,1.907,1.2,3.813a.924.924,0,0,0,.959.7q.419,0,.838,0a.907.907,0,0,0,.96-.694Q51.438,12,52.3,9.318c.124-.39.258-.778.357-1.174.078-.31-.057-.454-.374-.456-.377,0-.754,0-1.131,0a.952.952,0,0,0-1.062.8q-.442,1.5-.885,2.991c-.05.172-.107.341-.16.512a.924.924,0,0,1-.146-.321c-.327-1.117-.652-2.234-.982-3.35a.788.788,0,0,0-.847-.63q-.527,0-1.053,0a.8.8,0,0,0-.9.67c-.2.679-.4,1.36-.6,2.04l-.467,1.587m26.7,11.08H1.834a.964.964,0,0,0-.145-.04A1.853,1.853,0,0,1,.077,21.642c-.023-.086-.051-.171-.077-.257V1.678a1.023,1.023,0,0,0,.045-.125A1.833,1.833,0,0,1,1.478.076C1.6.046,1.716.025,1.834,0H70.751A.887.887,0,0,0,70.9.04a1.854,1.854,0,0,1,1.612,1.381c.023.086.051.171.077.257V21.386a1.084,1.084,0,0,0-.046.124,1.834,1.834,0,0,1-1.433,1.478c-.118.03-.237.051-.356.076" fill="#ffd228"/>
  <path id="Path_1067" data-name="Path 1067" d="M280.265,56.931q.234-.793.467-1.587c.2-.68.395-1.361.6-2.04a.8.8,0,0,1,.9-.67q.527,0,1.053,0a.789.789,0,0,1,.848.63c.329,1.116.654,2.233.981,3.35a.913.913,0,0,0,.146.321c.054-.171.109-.34.16-.512q.443-1.5.884-2.991a.952.952,0,0,1,1.063-.8c.377,0,.754,0,1.131,0,.318,0,.452.146.375.456-.1.4-.233.784-.358,1.174q-.86,2.682-1.725,5.364a.907.907,0,0,1-.96.694q-.419,0-.838,0a.924.924,0,0,1-.959-.7q-.6-1.906-1.2-3.813c-.021-.067-.046-.133-.089-.257-.04.111-.066.171-.086.233q-.6,1.915-1.207,3.831a.921.921,0,0,1-.971.708c-.286,0-.572,0-.858,0a.9.9,0,0,1-.921-.668q-.938-2.9-1.868-5.81c-.064-.2-.132-.395-.188-.595a1.141,1.141,0,0,1-.043-.307.269.269,0,0,1,.3-.306c.462-.005.924-.011,1.385,0a.88.88,0,0,1,.854.675q.511,1.709,1.016,3.42c.02.067.042.132.063.2" transform="translate(-236.209 -44.947)" fill="#006d95"/>
  <path id="Path_1068" data-name="Path 1068" d="M221.99,56.281v.01c-.357,0-.715-.016-1.071,0a.874.874,0,0,0-.8.5.817.817,0,0,0,.627,1.154,3.242,3.242,0,0,0,2.37-.544.25.25,0,0,0,.076-.183c.009-.253,0-.506.006-.76,0-.146-.056-.193-.2-.19-.338.006-.675,0-1.013,0m1.393,2.559c-.123.075-.22.136-.319.2a4.116,4.116,0,0,1-2.393.563,4.2,4.2,0,0,1-1.589-.35,2.239,2.239,0,0,1-1.4-2.148,2.212,2.212,0,0,1,1.527-2.119,4.246,4.246,0,0,1,1.6-.29c.722,0,1.443-.005,2.165,0,.184,0,.237-.055.217-.238-.1-.895-.465-1.237-1.371-1.243a2.053,2.053,0,0,0-1.036.226,1.264,1.264,0,0,0-.331.266,1.02,1.02,0,0,1-.808.36c-.306,0-.611,0-.917,0-.359,0-.525-.2-.5-.56a1.659,1.659,0,0,1,1.081-1.471,4.959,4.959,0,0,1,1.646-.374,7.2,7.2,0,0,1,2.346.111,2.779,2.779,0,0,1,1.945,1.431,3,3,0,0,1,.306,1.376q0,2.194,0,4.388c0,.346-.14.486-.484.488-.377,0-.755,0-1.132,0s-.509-.118-.533-.5a1.137,1.137,0,0,0-.018-.113" transform="translate(-185.894 -44.081)" fill="#006d95"/>
  <path id="Path_1069" data-name="Path 1069" d="M414.34,59.753c-.237-.03-.437-.047-.634-.081a2.494,2.494,0,0,1-1.585-.983,6.024,6.024,0,0,1-.952-1.932c-.378-1.21-.737-2.425-1.1-3.639-.09-.3.039-.472.346-.475.443,0,.885,0,1.327,0a.669.669,0,0,1,.689.52c.33,1.082.654,2.166.99,3.245a3.684,3.684,0,0,0,.595,1.221,1.031,1.031,0,0,0,.592.386c.151.035.222,0,.264-.159q.584-2.145,1.179-4.287c.042-.15.082-.3.126-.451a.615.615,0,0,1,.633-.475q.654,0,1.307,0c.333,0,.468.171.381.485-.624,2.283-1.238,4.567-1.885,6.843a7.958,7.958,0,0,1-.635,1.524,2.382,2.382,0,0,1-2.251,1.35c-.615-.006-1.23-.077-1.844-.14a.445.445,0,0,1-.442-.513c0-.228,0-.456,0-.683a.4.4,0,0,1,.441-.433,7.78,7.78,0,0,1,.889.092,1.116,1.116,0,0,0,1.073-.368,2.4,2.4,0,0,0,.5-1.046" transform="translate(-350.17 -44.955)" fill="#006d95"/>
  <path id="Path_1070" data-name="Path 1070" d="M177.407,41.709c0-1.105-.023-2.212.012-3.316a4.646,4.646,0,0,1,.252-1.313,2.353,2.353,0,0,1,1.847-1.538,9.019,9.019,0,0,1,2.871-.136c.246.021.492.054.734.1a.466.466,0,0,1,.438.524c0,.214,0,.429,0,.644a.421.421,0,0,1-.476.465,3.907,3.907,0,0,1-.658-.056,4.155,4.155,0,0,0-1.741.066,1.114,1.114,0,0,0-.893,1.116c-.025.193-.023.389-.043.583-.018.175.044.241.228.238.722-.009,1.444,0,2.166,0,.384,0,.517.133.519.514,0,.234,0,.468,0,.7a.422.422,0,0,1-.476.466c-.735,0-1.47.006-2.2,0-.179,0-.234.051-.233.231.006,1.347,0,2.693,0,4.039,0,.408-.128.536-.536.536h-1.288c-.4,0-.53-.13-.53-.523q0-1.668,0-3.336" transform="translate(-151.494 -30.192)" fill="#006d95"/>
  <path id="Path_1071" data-name="Path 1071" d="M369.913,52.664c.214-.144.379-.258.547-.367a4.366,4.366,0,0,1,2.5-.636.4.4,0,0,1,.418.421c.01.358.01.716,0,1.073a.392.392,0,0,1-.433.424,9.25,9.25,0,0,1-.974-.034,2.088,2.088,0,0,0-1.651.6,1.12,1.12,0,0,0-.411.944c.029,1.287.011,2.575.01,3.863,0,.413-.134.545-.552.545-.449,0-.9,0-1.346,0a.416.416,0,0,1-.469-.469q0-3.375,0-6.751a.416.416,0,0,1,.469-.468q.722,0,1.443,0a.413.413,0,0,1,.454.446c0,.121,0,.244,0,.412" transform="translate(-313.881 -44.118)" fill="#006d95"/>
  <path id="Path_1072" data-name="Path 1072" d="M235.824,83.541c.338,0,.675,0,1.013,0,.14,0,.2.044.2.19-.008.253,0,.507-.006.76a.25.25,0,0,1-.076.183,3.242,3.242,0,0,1-2.37.544.817.817,0,0,1-.627-1.154.874.874,0,0,1,.8-.5c.356-.021.714,0,1.071,0" transform="translate(-199.728 -71.341)" fill="#ffd228"/>
  <path id="Path_1073" data-name="Path 1073" d="M45.792,25.211A9.116,9.116,0,1,1,43.1,18.748a9.109,9.109,0,0,1,2.689,6.463" transform="translate(-23.548 -13.751)" fill="#fff"/>
  <path id="Path_1074" data-name="Path 1074" d="M57.865,73.059l-1.226-.613a13.979,13.979,0,0,1-5.747,5.431,9.091,9.091,0,0,1-3.462-2.023A6.271,6.271,0,0,0,50.9,73.983a12.8,12.8,0,0,0,2.743-3.4l-.956-.638a.478.478,0,0,1,.108-.849L57,67.628a.478.478,0,0,1,.631.389l.625,4.765a.271.271,0,0,1-.39.278" transform="translate(-40.505 -57.731)" fill="#006d95"/>
  <path id="Path_1075" data-name="Path 1075" d="M108.569,26.974a.277.277,0,0,1-.531-.054l-.281-1.614-2.08.647a.277.277,0,0,1-.332-.382,15.436,15.436,0,0,0,.986-2.825,5.194,5.194,0,0,0-.155-2.933,9.112,9.112,0,0,1,3.319,2.1,11.919,11.919,0,0,1-.926,5.057" transform="translate(-89.941 -16.92)" fill="#006d95"/>
</svg>
