<svg id="Group_55366" data-name="Group 55366" xmlns="http://www.w3.org/2000/svg" width="156.434" height="22.762" viewBox="0 0 156.434 22.762">
  <g id="vodafone-icon" transform="translate(0 0)">
    <path id="Path_1076" data-name="Path 1076" d="M7.443,1.9a11.34,11.34,0,0,1,8.956.262,7.53,7.53,0,0,0-2.38.1A11.524,11.524,0,0,0,8.288,5.153a9.872,9.872,0,0,0-2.878,5.581,7.767,7.767,0,0,0,.658,4.434,6.608,6.608,0,0,0,3.383,3.21,6.069,6.069,0,0,0,8.371-5.145A5.773,5.773,0,0,0,16.566,9a7.113,7.113,0,0,0-3.761-2.091,4.61,4.61,0,0,1,1.61-3.648,5.072,5.072,0,0,1,2.022-1.058l.056-.019a11.494,11.494,0,0,1,5.04,4.725,11.246,11.246,0,0,1,1.437,5.75,11.352,11.352,0,0,1-8.781,10.91A11.348,11.348,0,0,1,1.742,18.092,11.469,11.469,0,0,1,2.719,5.42,11.4,11.4,0,0,1,7.443,1.9Zm0,0" transform="translate(-0.279 -1.102)" fill="#e60000"/>
    <path id="Path_1077" data-name="Path 1077" d="M93.065,17.916a7.53,7.53,0,0,1,2.38-.1l.114.019-.076.029a5.073,5.073,0,0,0-2.022,1.058,4.61,4.61,0,0,0-1.61,3.648,7.112,7.112,0,0,1,3.761,2.091,5.773,5.773,0,0,1,1.256,4.229A6.069,6.069,0,0,1,88.5,34.032a6.607,6.607,0,0,1-3.383-3.21,7.766,7.766,0,0,1-.658-4.434,9.871,9.871,0,0,1,2.878-5.581A11.523,11.523,0,0,1,93.065,17.916Zm0,0" transform="translate(-79.325 -16.755)" fill="#fff"/>
  </g>
  <path id="Path_1078" data-name="Path 1078" d="M-167-6.854l-3.1-8.965h-2.423l4.135,11.275h2.746l4.135-11.275h-2.407Zm15.491-2.165a4.422,4.422,0,0,0-4.6-4.62,4.422,4.422,0,0,0-4.6,4.62,4.38,4.38,0,0,0,4.539,4.62A4.474,4.474,0,0,0-151.508-9.018Zm-6.914,0c0-1.793,1.082-2.649,2.278-2.649a2.351,2.351,0,0,1,2.31,2.649,2.382,2.382,0,0,1-2.342,2.649C-157.388-6.369-158.422-7.241-158.422-9.018Zm8-.032c0,2.795,1.809,4.652,4.087,4.652a3.382,3.382,0,0,0,2.94-1.47v1.325h2.294V-16.5H-143.4v4.248a3.672,3.672,0,0,0-2.924-1.389C-148.617-13.638-150.426-11.845-150.426-9.051Zm7.043.032a2.41,2.41,0,0,1-2.375,2.633,2.446,2.446,0,0,1-2.358-2.665,2.387,2.387,0,0,1,2.358-2.6A2.41,2.41,0,0,1-143.383-9.018Zm3.909-.032c0,2.795,1.809,4.652,4.071,4.652a3.529,3.529,0,0,0,2.972-1.454v1.308h2.278v-8.949h-2.278v1.276a3.539,3.539,0,0,0-2.956-1.422C-137.664-13.638-139.474-11.845-139.474-9.051Zm7.043.032a2.41,2.41,0,0,1-2.375,2.633,2.446,2.446,0,0,1-2.358-2.665,2.387,2.387,0,0,1,2.358-2.6A2.41,2.41,0,0,1-132.431-9.018Zm4.733,4.475h2.294v-7.091h1.567v-1.858H-125.4v-.372c0-1,.372-1.357,1.47-1.325V-17.1c-2.52-.065-3.764.953-3.764,3.15v.452h-1.018v1.858h1.018Zm13.973-4.475a4.422,4.422,0,0,0-4.6-4.62,4.422,4.422,0,0,0-4.6,4.62,4.38,4.38,0,0,0,4.539,4.62A4.474,4.474,0,0,0-113.725-9.018Zm-6.914,0c0-1.793,1.082-2.649,2.278-2.649a2.351,2.351,0,0,1,2.31,2.649,2.382,2.382,0,0,1-2.342,2.649C-119.6-6.369-120.638-7.241-120.638-9.018Zm14.845,4.475h2.262v-5.25c0-2.472-1.486-3.828-3.57-3.828a3.343,3.343,0,0,0-2.7,1.244v-1.115h-2.262v8.949h2.262V-9.487A1.943,1.943,0,0,1-107.78-11.7a1.936,1.936,0,0,1,1.987,2.213Zm8.255-7.237a1.988,1.988,0,0,1,2.132,1.922h-4.248A2.078,2.078,0,0,1-97.539-11.78Zm4.248,4.426H-95.73a1.844,1.844,0,0,1-1.793,1.082A2.094,2.094,0,0,1-99.671-8.34h6.542a5.286,5.286,0,0,0,.065-.872,4.2,4.2,0,0,0-4.41-4.426,4.3,4.3,0,0,0-4.491,4.62A4.334,4.334,0,0,0-97.474-4.4,4.159,4.159,0,0,0-93.29-7.354Zm5.169-2.843A5.559,5.559,0,0,0-82.4-4.447,5.294,5.294,0,0,0-77.1-8.1h-2.6a2.831,2.831,0,0,1-2.714,1.632C-84.39-6.466-85.8-7.92-85.8-10.2c0-2.294,1.405-3.731,3.376-3.731a2.843,2.843,0,0,1,2.714,1.615h2.6a5.313,5.313,0,0,0-5.3-3.651A5.573,5.573,0,0,0-88.121-10.2Zm12.374,1.147c0,2.795,1.809,4.652,4.071,4.652A3.529,3.529,0,0,0-68.7-5.852v1.308h2.278v-8.949H-68.7v1.276a3.539,3.539,0,0,0-2.956-1.422C-73.938-13.638-75.747-11.845-75.747-9.051Zm7.043.032a2.41,2.41,0,0,1-2.375,2.633,2.446,2.446,0,0,1-2.358-2.665,2.387,2.387,0,0,1,2.358-2.6A2.41,2.41,0,0,1-68.7-9.018ZM-57.268-7.1c-.065-3.279-5.024-2.262-5.024-3.893,0-.517.436-.856,1.276-.856a1.333,1.333,0,0,1,1.5,1.163h2.165c-.129-1.777-1.438-2.956-3.6-2.956-2.213,0-3.538,1.2-3.538,2.682,0,3.279,5.056,2.262,5.056,3.861,0,.517-.485.921-1.373.921a1.485,1.485,0,0,1-1.615-1.2H-64.7c.1,1.664,1.664,2.972,3.909,2.972C-58.608-4.4-57.268-5.561-57.268-7.1Zm1.858,2.552h2.262V-9.487A1.943,1.943,0,0,1-51.129-11.7a1.936,1.936,0,0,1,1.987,2.213v4.943h2.262v-5.25c0-2.472-1.47-3.828-3.489-3.828a3.439,3.439,0,0,0-2.778,1.244V-16.5H-55.41Z" transform="translate(203.314 22.238)" fill="#707070"/>
</svg>
