<svg xmlns="http://www.w3.org/2000/svg" width="148" height="148" viewBox="0 0 148 148">
  <g id="Group_55662" data-name="Group 55662" transform="translate(-262 -4449)">
    <rect id="Rectangle_13147" data-name="Rectangle 13147" width="148" height="148" transform="translate(262 4449)" fill="none"/>
    <g id="svgexport-6_14_" data-name="svgexport-6 (14)" transform="translate(262 4441)">
      <g id="Group_55660" data-name="Group 55660" transform="translate(0 12)">
        <g id="Group_55642" data-name="Group 55642" transform="translate(9.333 89.27)">
          <path id="Path_1426" data-name="Path 1426" d="M163.337,362.984H53.218a21.436,21.436,0,0,1-21.437-21.436v-4.111A21.436,21.436,0,0,1,53.218,316H163.337Z" transform="translate(-31.781 -316)" fill="#ffebb7"/>
        </g>
        <g id="Group_55643" data-name="Group 55643" transform="translate(14.031 93.968)">
          <rect id="Rectangle_13142" data-name="Rectangle 13142" width="11.746" height="37.587" fill="#5c546a"/>
        </g>
        <g id="Group_55644" data-name="Group 55644" transform="translate(4.634 49.333)">
          <path id="Path_1427" data-name="Path 1427" d="M140.876,212.889H15.781V180h125.1a6.46,6.46,0,0,1,6.46,6.46v19.968A6.46,6.46,0,0,1,140.876,212.889Z" transform="translate(-15.781 -180)" fill="#ffebb7"/>
        </g>
        <g id="Group_55645" data-name="Group 55645" transform="translate(21.079 7.048)">
          <rect id="Rectangle_13143" data-name="Rectangle 13143" width="119.81" height="35.238" fill="#ffebb7"/>
        </g>
        <g id="Group_55646" data-name="Group 55646" transform="translate(4.698 84.571)">
          <path id="Path_1428" data-name="Path 1428" d="M152.254,356.381H44.19a28.19,28.19,0,0,1,0-56.381H152.254a4.7,4.7,0,0,1,0,9.4H44.19a18.794,18.794,0,1,0,0,37.587H152.254a4.7,4.7,0,0,1,0,9.4Z" transform="translate(-16 -300)" fill="#00c37a"/>
        </g>
        <g id="Group_55648" data-name="Group 55648" transform="translate(0 46.984)">
          <g id="Group_55647" data-name="Group 55647" transform="translate(0 0)">
            <path id="Path_1429" data-name="Path 1429" d="M126.857,209.587H2.349a2.349,2.349,0,1,1,0-4.7H126.857a7.055,7.055,0,0,0,7.048-7.048v-14.1a7.055,7.055,0,0,0-7.048-7.048H2.349a2.349,2.349,0,0,1,0-4.7H126.857A11.76,11.76,0,0,1,138.6,183.746v14.1A11.76,11.76,0,0,1,126.857,209.587Z" transform="translate(0 -172)" fill="#009bca"/>
          </g>
        </g>
        <g id="Group_55649" data-name="Group 55649" transform="translate(30.475 14.095)">
          <path id="Path_1430" data-name="Path 1430" d="M214.194,64.7H106.13a2.349,2.349,0,0,1-2.349-2.349h0A2.349,2.349,0,0,1,106.13,60H214.194Z" transform="translate(-103.781 -60)" fill="#e6be94"/>
        </g>
        <g id="Group_55650" data-name="Group 55650" transform="translate(30.475 23.492)">
          <path id="Path_1431" data-name="Path 1431" d="M214.194,96.7H106.13a2.349,2.349,0,0,1-2.349-2.349h0A2.349,2.349,0,0,1,106.13,92H214.194Z" transform="translate(-103.781 -92)" fill="#e6be94"/>
        </g>
        <g id="Group_55651" data-name="Group 55651" transform="translate(30.475 32.889)">
          <path id="Path_1432" data-name="Path 1432" d="M214.194,128.7H106.13a2.349,2.349,0,0,1-2.349-2.349h0A2.349,2.349,0,0,1,106.13,124H214.194Z" transform="translate(-103.781 -124)" fill="#e6be94"/>
        </g>
        <g id="Group_55652" data-name="Group 55652" transform="translate(4.634 56.381)">
          <path id="Path_1433" data-name="Path 1433" d="M15.781,204H137.94a2.349,2.349,0,0,1,2.349,2.349h0a2.349,2.349,0,0,1-2.349,2.349H15.781S15.781,204,15.781,204Z" transform="translate(-15.781 -204)" fill="#e6be94"/>
        </g>
        <g id="Group_55653" data-name="Group 55653" transform="translate(4.634 65.778)">
          <path id="Path_1434" data-name="Path 1434" d="M15.781,236H137.94a2.349,2.349,0,0,1,2.349,2.349h0a2.349,2.349,0,0,1-2.349,2.349H15.781S15.781,236,15.781,236Z" transform="translate(-15.781 -236)" fill="#e6be94"/>
        </g>
        <g id="Group_55654" data-name="Group 55654" transform="translate(4.634 75.175)">
          <path id="Path_1435" data-name="Path 1435" d="M15.781,268H137.94a2.349,2.349,0,0,1,2.349,2.349h0a2.349,2.349,0,0,1-2.349,2.349H15.781S15.781,268,15.781,268Z" transform="translate(-15.781 -268)" fill="#e6be94"/>
        </g>
        <g id="Group_55655" data-name="Group 55655" transform="translate(16.444 0)">
          <path id="Path_1436" data-name="Path 1436" d="M182.857,58.984H70.1A14.111,14.111,0,0,1,56,44.889V26.1A14.111,14.111,0,0,1,70.1,12H182.857a4.7,4.7,0,1,1,0,9.4H70.1a4.7,4.7,0,0,0-4.7,4.7V44.889a4.7,4.7,0,0,0,4.7,4.7H182.857a4.7,4.7,0,1,1,0,9.4Z" transform="translate(-56 -12)" fill="#ff4f19"/>
        </g>
        <g id="Group_55656" data-name="Group 55656" transform="translate(30.475 126.857)">
          <path id="Path_1437" data-name="Path 1437" d="M106.13,444a2.349,2.349,0,0,0,0,4.7H214.194V444Z" transform="translate(-103.781 -444)" fill="#e6be94"/>
        </g>
        <g id="Group_55657" data-name="Group 55657" transform="translate(30.475 117.46)">
          <path id="Path_1438" data-name="Path 1438" d="M106.13,412a2.349,2.349,0,0,0,0,4.7H214.194V412Z" transform="translate(-103.781 -412)" fill="#e6be94"/>
        </g>
        <g id="Group_55658" data-name="Group 55658" transform="translate(30.475 108.063)">
          <path id="Path_1439" data-name="Path 1439" d="M106.13,380a2.349,2.349,0,0,0,0,4.7H214.194V380Z" transform="translate(-103.781 -380)" fill="#e6be94"/>
        </g>
        <g id="Group_55659" data-name="Group 55659" transform="translate(30.475 98.667)">
          <path id="Path_1440" data-name="Path 1440" d="M106.13,348a2.349,2.349,0,0,0,0,4.7H214.194V348Z" transform="translate(-103.781 -348)" fill="#e6be94"/>
        </g>
      </g>
    </g>
  </g>
</svg>
