<svg xmlns="http://www.w3.org/2000/svg" width="148.365" height="148" viewBox="0 0 148.365 148">
  <g id="Group_55661" data-name="Group 55661" transform="translate(-678 -4449)">
    <rect id="Rectangle_13146" data-name="Rectangle 13146" width="148" height="148" transform="translate(678 4449)" fill="none"/>
    <g id="svgexport-6_13_" data-name="svgexport-6 (13)" transform="translate(678 4448.388)">
      <g id="Group_55641" data-name="Group 55641" transform="translate(0 0.612)">
        <path id="Path_1416" data-name="Path 1416" d="M100.631,244.114a15.194,15.194,0,0,1-15.194,15.194H41.02L24.255,273.352a.565.565,0,0,1-.928-.433V260.606a1.3,1.3,0,0,0-1.3-1.3H15.194A15.194,15.194,0,0,1,0,244.114V193.853a15.194,15.194,0,0,1,15.193-15.194h85.437v65.455Z" transform="translate(0 -125.485)" fill="#86e8d0"/>
        <path id="Path_1417" data-name="Path 1417" d="M20.908,244.114V193.853A15.194,15.194,0,0,1,36.1,178.659H15.193A15.194,15.194,0,0,0,0,193.853v50.261a15.194,15.194,0,0,0,15.194,15.194H22.03a1.3,1.3,0,0,1,1.3,1.3v12.313a.565.565,0,0,0,.928.433L41.02,259.308H36.1A15.194,15.194,0,0,1,20.908,244.114Z" transform="translate(0 -125.485)" fill="#5de1c4"/>
        <path id="Path_1418" data-name="Path 1418" d="M224.853,221.532V178.66H177.119a51.2,51.2,0,0,0,14.2,27.9v15.622a7.694,7.694,0,0,0,12.868,5.7l9.122-8.277a50.839,50.839,0,0,0,11.539,1.927Z" transform="translate(-124.222 -125.485)" fill="#5de1c4"/>
        <path id="Path_1419" data-name="Path 1419" d="M239.96.612a45.074,45.074,0,0,0-30.172,78.519V97.308a1.724,1.724,0,0,0,2.882,1.276l11.7-10.612A45.079,45.079,0,1,0,239.96.612Z" transform="translate(-136.713 -0.612)" fill="#fd8087"/>
        <path id="Path_1420" data-name="Path 1420" d="M210.574,53.494a49.682,49.682,0,0,1,46.55-49.516,45.08,45.08,0,0,0-47.338,75.154V97.308a1.724,1.724,0,0,0,2.882,1.276l11.7-10.612c.145.054.292.1.438.156a49.348,49.348,0,0,1-14.228-34.634Z" transform="translate(-136.713 -0.612)" fill="#fe646f"/>
        <g id="Group_55632" data-name="Group 55632" transform="translate(98.402 68.587)">
          <path id="Path_1421" data-name="Path 1421" d="M334.9,241.091a5.412,5.412,0,1,1,5.413-5.412A5.419,5.419,0,0,1,334.9,241.091Z" transform="translate(-329.487 -230.266)" fill="#f9f7f8"/>
        </g>
        <g id="Group_55634" data-name="Group 55634" transform="translate(84.256 10.805)">
          <g id="Group_55633" data-name="Group 55633">
            <path id="Path_1422" data-name="Path 1422" d="M301.678,86.9a4.48,4.48,0,0,1-4.48-4.48V73.369a6.54,6.54,0,0,1,5.755-6.5A10.586,10.586,0,0,0,312.245,55.5a10.708,10.708,0,0,0-10.112-9.744,10.554,10.554,0,0,0-10.952,9.106,10.753,10.753,0,0,0-.1,1.484,4.48,4.48,0,1,1-8.96,0,19.793,19.793,0,0,1,.188-2.721,19.561,19.561,0,1,1,23.851,21.766v7.025A4.48,4.48,0,0,1,301.678,86.9Z" transform="translate(-282.119 -36.79)" fill="#f9f7f8"/>
          </g>
        </g>
        <g id="Group_55636" data-name="Group 55636" transform="translate(25.166 76.166)">
          <g id="Group_55635" data-name="Group 55635">
            <path id="Path_1423" data-name="Path 1423" d="M118.681,260.124H86.5a2.24,2.24,0,1,1,0-4.48h32.177a2.24,2.24,0,1,1,0,4.48Z" transform="translate(-84.264 -255.644)" fill="#f9f7f8"/>
          </g>
        </g>
        <g id="Group_55638" data-name="Group 55638" transform="translate(11.846 90.999)">
          <g id="Group_55637" data-name="Group 55637">
            <path id="Path_1424" data-name="Path 1424" d="M91.891,309.791H41.9a2.24,2.24,0,1,1,0-4.48H91.891a2.24,2.24,0,0,1,0,4.48Z" transform="translate(-39.665 -305.311)" fill="#f9f7f8"/>
          </g>
        </g>
        <g id="Group_55640" data-name="Group 55640" transform="translate(11.846 105.833)">
          <g id="Group_55639" data-name="Group 55639">
            <path id="Path_1425" data-name="Path 1425" d="M112.075,359.458H41.9a2.24,2.24,0,1,1,0-4.48h70.17a2.24,2.24,0,0,1,0,4.48Z" transform="translate(-39.665 -354.978)" fill="#f9f7f8"/>
          </g>
        </g>
      </g>
    </g>
  </g>
</svg>
