<svg xmlns="http://www.w3.org/2000/svg" width="275" height="275" viewBox="0 0 275 275">
  <g id="Group_55699" data-name="Group 55699" transform="translate(-823 -793)">
    <circle id="Ellipse_7" data-name="Ellipse 7" cx="137.5" cy="137.5" r="137.5" transform="translate(823 793)" fill="#f6f5f8"/>
    <g id="svgexport-6_2_" data-name="svgexport-6 (2)" transform="translate(859 827)">
      <g id="Group_55698" data-name="Group 55698" transform="translate(30 36)">
        <circle id="Ellipse_594" data-name="Ellipse 594" cx="51.228" cy="51.228" r="51.228" fill="#e5efef"/>
        <circle id="Ellipse_595" data-name="Ellipse 595" cx="51.228" cy="51.228" r="51.228" fill="#e5efef"/>
        <g id="Group_55695" data-name="Group 55695" transform="translate(65.674 2.551)">
          <path id="Path_1503" data-name="Path 1503" d="M149.458,73.838a2.374,2.374,0,0,1-1.683-.7l-6.733-6.733a2.38,2.38,0,0,1,3.366-3.366l6.733,6.733a2.381,2.381,0,0,1-1.683,4.064Z" transform="translate(-140.344 -49.216)" fill="#bcc4cc"/>
          <path id="Path_1504" data-name="Path 1504" d="M142.725,73.838a2.381,2.381,0,0,1-1.683-4.064l6.733-6.733a2.38,2.38,0,0,1,3.366,3.366l-6.733,6.733A2.371,2.371,0,0,1,142.725,73.838Z" transform="translate(-140.344 -49.216)" fill="#bcc4cc"/>
          <circle id="Ellipse_596" data-name="Ellipse 596" cx="2.338" cy="2.338" r="2.338" transform="translate(29.554 25.933)" fill="#bcc4cc"/>
          <circle id="Ellipse_597" data-name="Ellipse 597" cx="2.338" cy="2.338" r="2.338" transform="translate(22.327 0)" fill="#bcc4cc"/>
        </g>
        <g id="Group_55696" data-name="Group 55696" transform="translate(11.903 26.039)">
          <path id="Path_1505" data-name="Path 1505" d="M172.37,251.9H77.142A7.142,7.142,0,0,1,70,244.761V240H179.512v4.761A7.142,7.142,0,0,1,172.37,251.9Z" transform="translate(-58.096 -144.623)" fill="#e4eaef"/>
          <path id="Path_1506" data-name="Path 1506" d="M170.751,252.665H75.523A9.534,9.534,0,0,1,66,243.142v-4.761A2.381,2.381,0,0,1,68.381,236H177.893a2.381,2.381,0,0,1,2.381,2.381v4.761A9.534,9.534,0,0,1,170.751,252.665Zm-99.989-11.9v2.381a4.766,4.766,0,0,0,4.761,4.761h95.228a4.766,4.766,0,0,0,4.761-4.761v-2.381Z" transform="translate(-56.477 -143.004)" fill="#bcc4cc"/>
          <path id="Path_1510" data-name="Path 1510" d="M169.657,182.269H86.163a2.381,2.381,0,1,1,0-4.761h83.494a6.43,6.43,0,0,0,6.52-6.321v-65.1a7.15,7.15,0,0,0-7.142-7.142H99.485A2.382,2.382,0,0,1,97.34,97.6L92.16,86.853a6.188,6.188,0,0,0-4.869-2.343H60.766a5.92,5.92,0,0,0-6,5.817v80.857a6.43,6.43,0,0,0,6.52,6.322H73.867a2.381,2.381,0,1,1,0,4.761H61.282A11.2,11.2,0,0,1,50,171.186V90.328A10.684,10.684,0,0,1,60.766,79.75H87.291A10.959,10.959,0,0,1,96.125,84.2a2.332,2.332,0,0,1,.222.371l4.632,9.609h68.056a11.918,11.918,0,0,1,11.9,11.9v65.1A11.2,11.2,0,0,1,169.657,182.269Z" transform="translate(-50 -79.75)" fill="#bcc4cc"/>
        </g>
        <g id="Group_55697" data-name="Group 55697" transform="translate(11.903 26.039)">
          <path id="Path_1507" data-name="Path 1507" d="M87.782,181.507h83.495a8.8,8.8,0,0,0,8.9-8.7v-65.1a9.522,9.522,0,0,0-9.523-9.523H101.1L95.822,87.227a8.554,8.554,0,0,0-6.911-3.477H62.385A8.293,8.293,0,0,0,54,91.948v80.857a8.8,8.8,0,0,0,8.9,8.7H75.487" transform="translate(-51.619 -81.369)" fill="#f1f5f9"/>
          <path id="Path_1508" data-name="Path 1508" d="M169.657,182.269H86.163a2.381,2.381,0,1,1,0-4.761h83.494a6.43,6.43,0,0,0,6.52-6.321v-65.1a7.15,7.15,0,0,0-7.142-7.142H99.485A2.382,2.382,0,0,1,97.34,97.6L92.16,86.853a6.188,6.188,0,0,0-4.869-2.343H60.766a5.92,5.92,0,0,0-6,5.817v80.857a6.43,6.43,0,0,0,6.52,6.322H73.867a2.381,2.381,0,1,1,0,4.761H61.282A11.2,11.2,0,0,1,50,171.186V90.328A10.684,10.684,0,0,1,60.766,79.75H87.291A10.959,10.959,0,0,1,96.125,84.2a2.332,2.332,0,0,1,.222.371l4.632,9.609h68.056a11.918,11.918,0,0,1,11.9,11.9v65.1A11.2,11.2,0,0,1,169.657,182.269Z" transform="translate(-50 -79.75)" fill="#bcc4cc"/>
        </g>
        <path id="Path_1509" data-name="Path 1509" d="M121.046,108.761H104.381a2.381,2.381,0,0,1,0-4.761h16.665a2.381,2.381,0,0,1,0,4.761Z" transform="translate(-59.147 -63.528)" fill="#bcc4cc"/>
      </g>
    </g>
  </g>
</svg>
