<svg id="svgexport-6_12_" data-name="svgexport-6 (12)" xmlns="http://www.w3.org/2000/svg" width="148" height="148" viewBox="0 0 148 148">
  <g id="Group_55631" data-name="Group 55631" transform="translate(0 0)">
    <path id="Path_1412" data-name="Path 1412" d="M111,148H37A37,37,0,0,1,0,111V37A37,37,0,0,1,37,0h74a37,37,0,0,1,37,37v74a37,37,0,0,1-37,37" transform="translate(0 0)" fill="red" fill-rule="evenodd"/>
    <path id="Path_1413" data-name="Path 1413" d="M69.375,41.625H111A20.814,20.814,0,0,0,113.127.106C112.42.067,111.719,0,111,0H37A37,37,0,0,0,0,37v74A69.376,69.376,0,0,1,69.373,41.625" transform="translate(0 0)" fill="#ff5a51" fill-rule="evenodd"/>
    <path id="Path_1414" data-name="Path 1414" d="M69,53a37,37,0,1,0,37,37V16A37,37,0,0,1,69,53" transform="translate(42 21)" fill="#d5002c" fill-rule="evenodd"/>
    <path id="Path_1415" data-name="Path 1415" d="M29.049,18.266A4.624,4.624,0,0,0,22,22.2V79.651a4.624,4.624,0,0,0,7.048,3.938C40.84,76.335,64.381,61.847,75.724,54.866a4.623,4.623,0,0,0,0-7.876C64.381,40.008,40.84,25.52,29.049,18.266Z" transform="translate(28.875 23.072)" fill="#fff" fill-rule="evenodd"/>
  </g>
</svg>
