<svg xmlns="http://www.w3.org/2000/svg" width="16" height="24.018" viewBox="0 0 16 24.018">
  <path id="fi-rr-badge" d="M20,8A8,8,0,1,0,6,13.274V21.5a2.5,2.5,0,0,0,4.062,1.952l1.626-1.3a.5.5,0,0,1,.624,0l1.626,1.3A2.5,2.5,0,0,0,18,21.5V13.274A7.957,7.957,0,0,0,20,8ZM12,2A6,6,0,1,1,6,8a6,6,0,0,1,6-6Zm3.717,19.948a.491.491,0,0,1-.529-.06l-1.626-1.3a2.49,2.49,0,0,0-3.124,0l-1.625,1.3A.5.5,0,0,1,8,21.5V14.918a7.935,7.935,0,0,0,8,0V21.5A.487.487,0,0,1,15.717,21.948Z" transform="translate(-4 0.018)" fill="#292929"/>
</svg>
