<svg xmlns="http://www.w3.org/2000/svg" width="28.868" height="35.452" viewBox="0 0 28.868 35.452">
  <path id="fi-rr-play" d="M6.023,11.771,20.117,1.429A7.387,7.387,0,0,1,31.868,7.386V28.069a7.387,7.387,0,0,1-11.755,5.955L6.018,23.683a7.387,7.387,0,0,1,0-11.913ZM7.772,21.3,21.866,31.641a4.432,4.432,0,0,0,7.047-3.572V7.386a4.355,4.355,0,0,0-2.424-3.948,4.459,4.459,0,0,0-2.017-.485,4.388,4.388,0,0,0-2.606.87L7.772,14.165a4.432,4.432,0,0,0,0,7.145Z" transform="translate(-3 -0.002)" fill="#fff"/>
</svg>
