<svg xmlns="http://www.w3.org/2000/svg" width="25.228" height="25.349" viewBox="0 0 25.228 25.349">
  <g id="svgexport-6" transform="translate(-0.25)">
    <path id="Path_1084" data-name="Path 1084" d="M21.8,3.684A12.564,12.564,0,0,0,2.032,18.84L.25,25.349,6.909,23.6a12.548,12.548,0,0,0,6,1.529h.005A12.567,12.567,0,0,0,21.8,3.684ZM12.917,23.01h0A10.427,10.427,0,0,1,7.6,21.555l-.381-.226L3.266,22.365l1.055-3.853-.248-.395a10.44,10.44,0,1,1,8.844,4.893Zm5.727-7.819c-.314-.157-1.857-.916-2.145-1.021s-.5-.157-.706.157-.811,1.021-.994,1.23-.366.236-.68.079a8.573,8.573,0,0,1-2.524-1.558A9.467,9.467,0,0,1,9.849,11.9c-.183-.314,0-.468.138-.641a8.878,8.878,0,0,0,.785-1.074.577.577,0,0,0-.026-.55c-.078-.157-.706-1.7-.967-2.331-.255-.612-.514-.529-.706-.539s-.392-.011-.6-.011a1.153,1.153,0,0,0-.837.393,3.52,3.52,0,0,0-1.1,2.618,6.106,6.106,0,0,0,1.282,3.247,13.99,13.99,0,0,0,5.362,4.739,17.965,17.965,0,0,0,1.789.661,4.3,4.3,0,0,0,1.977.124,3.233,3.233,0,0,0,2.119-1.492,2.623,2.623,0,0,0,.183-1.493c-.078-.131-.288-.209-.6-.367Zm0,0" fill="#fff" fill-rule="evenodd"/>
  </g>
</svg>
