<svg id="Group_55375" data-name="Group 55375" xmlns="http://www.w3.org/2000/svg" width="36.391" height="36.392" viewBox="0 0 36.391 36.392">
  <g id="Rectangle_737" data-name="Rectangle 737" transform="translate(0)" fill="none" stroke="rgba(17,36,89,0.16)" stroke-width="1">
    <rect width="36.391" height="36.391" rx="6" stroke="none"/>
    <rect x="0.5" y="0.5" width="35.391" height="35.391" rx="5.5" fill="none"/>
  </g>
  <g id="_002-facebook-logo" data-name="002-facebook-logo" transform="translate(13.517 9.358)">
    <path id="Path_70" data-name="Path 70" d="M31.45,0,29.114,0a4.1,4.1,0,0,0-4.321,4.434V6.478H22.444a.367.367,0,0,0-.367.368V9.807a.367.367,0,0,0,.367.367h2.349v7.474a.367.367,0,0,0,.367.367h3.065a.367.367,0,0,0,.367-.367V10.174h2.746a.367.367,0,0,0,.367-.367V6.845a.368.368,0,0,0-.368-.368H28.593V4.745c0-.833.2-1.256,1.283-1.256H31.45a.367.367,0,0,0,.367-.367V.371A.367.367,0,0,0,31.45,0Z" transform="translate(-22.077)" fill="#404040"/>
  </g>
</svg>
