<svg id="Group_55378" data-name="Group 55378" xmlns="http://www.w3.org/2000/svg" width="36.391" height="36.392" viewBox="0 0 36.391 36.392">
  <g id="Rectangle_739" data-name="Rectangle 739" transform="translate(0)" fill="none" stroke="rgba(17,36,89,0.16)" stroke-width="1">
    <rect width="36.391" height="36.391" rx="6" stroke="none"/>
    <rect x="0.5" y="0.5" width="35.391" height="35.391" rx="5.5" fill="none"/>
  </g>
  <g id="instagram_1_" data-name="instagram (1)" transform="translate(9.358 9.358)">
    <path id="Path_74" data-name="Path 74" d="M12.775,0H5.421A5.427,5.427,0,0,0,0,5.421v7.355A5.427,5.427,0,0,0,5.421,18.2h7.355A5.427,5.427,0,0,0,18.2,12.775V5.421A5.427,5.427,0,0,0,12.775,0Zm3.59,12.775a3.59,3.59,0,0,1-3.59,3.59H5.421a3.59,3.59,0,0,1-3.59-3.59V5.421a3.59,3.59,0,0,1,3.59-3.59h7.355a3.59,3.59,0,0,1,3.59,3.59v7.355Z" fill="#404040"/>
    <path id="Path_75" data-name="Path 75" d="M137.706,133a4.706,4.706,0,1,0,4.706,4.706A4.711,4.711,0,0,0,137.706,133Zm0,7.582a2.876,2.876,0,1,1,2.876-2.876A2.876,2.876,0,0,1,137.706,140.582Z" transform="translate(-128.608 -128.608)" fill="#404040"/>
    <ellipse id="Ellipse_5" data-name="Ellipse 5" cx="1.128" cy="1.128" rx="1.128" ry="1.128" transform="translate(12.685 3.3)" fill="#404040"/>
  </g>
</svg>
