<svg id="Group_55376" data-name="Group 55376" xmlns="http://www.w3.org/2000/svg" width="36.391" height="36.392" viewBox="0 0 36.391 36.392">
  <g id="Rectangle_738" data-name="Rectangle 738" fill="none" stroke="rgba(17,36,89,0.16)" stroke-width="1">
    <rect width="36.391" height="36.391" rx="6" stroke="none"/>
    <rect x="0.5" y="0.5" width="35.391" height="35.391" rx="5.5" fill="none"/>
  </g>
  <g id="_001-twitter-logo-silhouette" data-name="001-twitter-logo-silhouette" transform="translate(8.318 10.398)">
    <g id="Group_25" data-name="Group 25">
      <path id="Path_69" data-name="Path 69" d="M19.241,59.29a7.882,7.882,0,0,1-2.266.622,3.963,3.963,0,0,0,1.735-2.182,7.957,7.957,0,0,1-2.508.958,3.95,3.95,0,0,0-6.725,3.6,11.205,11.205,0,0,1-8.134-4.124,3.951,3.951,0,0,0,1.222,5.268,3.947,3.947,0,0,1-1.788-.5v.049a3.951,3.951,0,0,0,3.166,3.87,4,4,0,0,1-1.04.138,3.787,3.787,0,0,1-.743-.073,3.949,3.949,0,0,0,3.686,2.741,7.919,7.919,0,0,1-4.9,1.687A8.388,8.388,0,0,1,0,71.293a11.156,11.156,0,0,0,6.05,1.776A11.152,11.152,0,0,0,17.28,61.84l-.013-.511A7.881,7.881,0,0,0,19.241,59.29Z" transform="translate(-0.001 -57.441)" fill="#404040"/>
    </g>
  </g>
</svg>
