<svg id="Group_55379" data-name="Group 55379" xmlns="http://www.w3.org/2000/svg" width="36.391" height="36.392" viewBox="0 0 36.391 36.392">
  <g id="Rectangle_740" data-name="Rectangle 740" fill="none" stroke="rgba(17,36,89,0.16)" stroke-width="1">
    <rect width="36.391" height="36.391" rx="6" stroke="none"/>
    <rect x="0.5" y="0.5" width="35.391" height="35.391" rx="5.5" fill="none"/>
  </g>
  <g id="_005-youtube" data-name="005-youtube" transform="translate(8.318 11.437)">
    <g id="Group_32" data-name="Group 32">
      <path id="Path_73" data-name="Path 73" d="M19.433,81.345c-.551-.979-1.148-1.159-2.364-1.228S12.8,80,10.15,80s-5.709.034-6.923.115-1.813.249-2.368,1.229S0,84.007,0,86.973v.01c0,2.953.292,4.65.859,5.618s1.153,1.157,2.367,1.239,4.272.113,6.925.113,5.7-.042,6.919-.112,1.814-.26,2.364-1.239c.572-.968.861-2.665.861-5.618v-.01C20.3,84.007,20.006,82.323,19.433,81.345ZM7.611,90.782V83.171l6.342,3.805Z" transform="translate(0 -80)" fill="#404040"/>
    </g>
  </g>
</svg>
