<svg xmlns="http://www.w3.org/2000/svg" width="98" height="98" viewBox="0 0 98 98">
  <g id="Group_55773" data-name="Group 55773" transform="translate(-1746 -918)">
    <g id="Group_55772" data-name="Group 55772" transform="translate(80 150)">
      <g id="Ellipse_559" data-name="Ellipse 559" transform="translate(1666 768)" fill="#fff" stroke="#d8d8d8" stroke-width="0.5">
        <circle cx="49" cy="49" r="49" stroke="none"/>
        <circle cx="49" cy="49" r="48.75" fill="none"/>
      </g>
    </g>
    <g id="Group_55770" data-name="Group 55770" transform="translate(80.194 -4)">
      <g id="svgexport-6" transform="translate(1637.321 942)">
        <g id="Group_55528" data-name="Group 55528" transform="translate(54.679 0)">
          <path id="Path_1216" data-name="Path 1216" d="M58.742,125.864l3.437-1.237A3.028,3.028,0,0,1,66.1,126.6l1.059,3.5a3.028,3.028,0,0,0,5.6.482L91.821,92.651,74.066,83.73,55.011,121.655A3.028,3.028,0,0,0,58.742,125.864Z" transform="translate(-54.679 -74.245)" fill="#fd4755"/>
          <path id="Path_1217" data-name="Path 1217" d="M162.521,125.863l-3.437-1.238a3.028,3.028,0,0,0-3.923,1.971l-1.059,3.5a3.028,3.028,0,0,1-5.6.482l-5.225-10.4L129.442,92.649,147.2,83.728l14.488,28.837,4.566,9.088a3.028,3.028,0,0,1-3.732,4.209Z" transform="translate(-120.973 -74.243)" fill="#fe646f"/>
          <path id="Path_1218" data-name="Path 1218" d="M161.686,112.565a24.786,24.786,0,0,1-17.908,7.616c-.168,0-.337,0-.5-.006L129.442,92.649,147.2,83.728Z" transform="translate(-120.973 -74.243)" fill="#fd4755"/>
          <circle id="Ellipse_571" data-name="Ellipse 571" cx="21.077" cy="21.077" r="21.077" transform="translate(1.729 0)" fill="#ffe177"/>
          <path id="Path_1219" data-name="Path 1219" d="M92.843,42.077q-.9.078-1.829.079A21.077,21.077,0,1,1,91.014,0q.925,0,1.829.079a21.078,21.078,0,0,0,0,42Z" transform="translate(-68.209 -0.001)" fill="#ffd15b"/>
          <circle id="Ellipse_572" data-name="Ellipse 572" cx="15.885" cy="15.885" r="15.885" transform="translate(6.921 5.192)" fill="#ffd15b"/>
          <path id="Path_1220" data-name="Path 1220" d="M257.887,61.718A15.885,15.885,0,0,1,242,77.6a16.045,16.045,0,0,1-1.788-.1,15.886,15.886,0,0,0,0-31.57,15.893,15.893,0,0,1,17.674,15.785Z" transform="translate(-219.195 -40.641)" fill="#fec165"/>
          <g id="Group_55527" data-name="Group 55527" transform="translate(12.519 11.21)">
            <path id="Path_1221" data-name="Path 1221" d="M177.01,99.909l1.855,3.758a1.709,1.709,0,0,0,1.287.935l4.147.6a1.709,1.709,0,0,1,.947,2.916l-3,2.925a1.709,1.709,0,0,0-.492,1.513l.708,4.131a1.709,1.709,0,0,1-2.48,1.8l-3.71-1.95a1.709,1.709,0,0,0-1.591,0l-3.709,1.95a1.709,1.709,0,0,1-2.48-1.8l.708-4.131a1.709,1.709,0,0,0-.492-1.513l-3-2.925a1.709,1.709,0,0,1,.947-2.916l4.147-.6a1.709,1.709,0,0,0,1.287-.935l1.855-3.758a1.709,1.709,0,0,1,3.065,0Z" transform="translate(-165.19 -98.956)" fill="#ffe177"/>
          </g>
        </g>
      </g>
    </g>
  </g>
</svg>
