<svg id="svgexport-6_1_" data-name="svgexport-6 (1)" xmlns="http://www.w3.org/2000/svg" width="148.5" height="148.5" viewBox="0 0 148.5 148.5">
  <path id="Path_1245" data-name="Path 1245" d="M308.951,74.25A74.54,74.54,0,0,0,234.7,0L226,8.7V139.8l8.7,8.7A74.54,74.54,0,0,0,308.951,74.25Z" transform="translate(-160.451)" fill="#756e6e"/>
  <path id="Path_1246" data-name="Path 1246" d="M224.052,161.1H211V30h13.052a65.549,65.549,0,1,1,0,131.1Z" transform="translate(-149.802 -21.299)" fill="#ffb62a"/>
  <path id="Path_1247" data-name="Path 1247" d="M211,186.713V91h13.052a47.856,47.856,0,0,1,0,95.713Z" transform="translate(-149.802 -64.606)" fill="#ff9100"/>
  <path id="Path_1248" data-name="Path 1248" d="M211,211.908V151h13.052a30.454,30.454,0,0,1,0,60.908Z" transform="translate(-149.802 -107.204)" fill="#fa3423"/>
  <path id="Path_1249" data-name="Path 1249" d="M224.052,237.1H211V211h13.052a13.052,13.052,0,0,1,0,26.1Z" transform="translate(-149.802 -149.802)" fill="#cd0000"/>
  <path id="Path_1250" data-name="Path 1250" d="M61.2,130.272.283,161.145C.143,163,0,164.85,0,166.738c0,35.021,24.782,64.659,57.519,72.27L74.25,195.391V145.5Z" transform="translate(0 -92.488)" fill="#4bb9ec"/>
  <path id="Path_1251" data-name="Path 1251" d="M139.581,25.88V0A73.845,73.845,0,0,0,92.02,17.692l22.485,8.7Z" transform="translate(-65.331)" fill="#4bb9ec"/>
  <g id="Group_55569" data-name="Group 55569" transform="translate(0.283 17.692)">
    <path id="Path_1252" data-name="Path 1252" d="M151,301v31.482l13.723,27.736a73.718,73.718,0,0,0,16.731,1.98V316.6l-15.6-15.6Z" transform="translate(-107.487 -231.391)" fill="#b9dd39"/>
    <path id="Path_1253" data-name="Path 1253" d="M58.569,61H27.382A74.123,74.123,0,0,0,.976,111.965l20.757,9.943H44.489v-11.25l17.4-17.4V89.793l13.052,6.526V69.187Z" transform="translate(-0.976 -61)" fill="#b9dd39"/>
  </g>
</svg>
