<svg xmlns="http://www.w3.org/2000/svg" width="148.5" height="148.5" viewBox="0 0 148.5 148.5">
  <g id="svgexport-6_4_" data-name="svgexport-6 (4)" transform="translate(0.001 -0.5)">
    <path id="Path_1279" data-name="Path 1279" d="M190.325,263.061a2.236,2.236,0,0,1-1.586-.657l-34.07-34.07a2.244,2.244,0,0,1,3.173-3.173l34.07,34.07a2.244,2.244,0,0,1-1.587,3.831Zm0,0" transform="translate(-109.343 -159.035)" fill="#8ac129"/>
    <path id="Path_1280" data-name="Path 1280" d="M219.214,221.958a2.237,2.237,0,0,1-1.586-.657L174.91,178.583a2.244,2.244,0,0,1,3.173-3.173L220.8,218.126a2.244,2.244,0,0,1-1.587,3.832Zm0,0" transform="translate(-123.713 -123.713)" fill="#ff4c4c"/>
    <path id="Path_1281" data-name="Path 1281" d="M260.318,193.067a2.237,2.237,0,0,1-1.587-.657l-34.07-34.07a2.244,2.244,0,0,1,3.175-3.173L261.9,189.235a2.244,2.244,0,0,1-1.586,3.832Zm0,0" transform="translate(-159.035 -109.341)" fill="#8ac129"/>
    <path id="Path_1282" data-name="Path 1282" d="M382.207,74.691a2.235,2.235,0,0,1-1.586-.657L348.177,41.592a2.244,2.244,0,0,1,3.175-3.173L383.794,70.86a2.244,2.244,0,0,1-1.587,3.831Zm0,0" transform="translate(-246.726 -26.454)" fill="#ff4c4c"/>
    <path id="Path_1283" data-name="Path 1283" d="M71.946,384.952a2.237,2.237,0,0,1-1.587-.657L37.916,351.852a2.244,2.244,0,1,1,3.175-3.173l32.444,32.444a2.244,2.244,0,0,1-1.587,3.831Zm0,0" transform="translate(-26.453 -246.727)" fill="#ff4c4c"/>
    <path id="Path_1284" data-name="Path 1284" d="M41.278,321.6c-13.818-2.613-28.2-3.028-39.829,8.6a4.949,4.949,0,0,0,7,7c9.43-9.43,21.432-8.046,35.252-5.007-.783-3.561-1.644-7.108-2.421-10.592Zm0,0" transform="translate(0 -226.891)" fill="#ffbf14"/>
    <path id="Path_1285" data-name="Path 1285" d="M127.136,322.888c-2.059-.39-4.13-.73-6.2-.989.75,3.427,1.571,6.815,2.361,10.326,2.043.357,4.132.786,6.263,1.255-.787-3.58-1.642-7.1-2.421-10.592Zm0,0" transform="translate(-85.858 -228.181)" fill="#e0a812"/>
    <path id="Path_1286" data-name="Path 1286" d="M237.005,8.947a4.948,4.948,0,1,0-7-7C202.413,29.544,242.533,70.773,220,93.3c-10.678,10.679-24.657,7.491-40.839,3.732.827,3.555,1.658,7.137,2.328,10.686,15.476,3.45,32.275,5.814,45.509-7.42,27.665-27.666-12.518-68.832,10-91.355Zm0,0" transform="translate(-127.2)" fill="#ffbf14"/>
    <path id="Path_1287" data-name="Path 1287" d="M181.489,344.022c1.851.412,3.721.81,5.6,1.166-.633-3.541-1.429-7.046-2.242-10.555-1.863-.409-3.759-.85-5.687-1.3.827,3.553,1.654,7.113,2.329,10.686Zm0,0" transform="translate(-127.197 -236.301)" fill="#e0a812"/>
    <path id="Path_1288" data-name="Path 1288" d="M187.7,146.9c-.825-3.542-1.664-7.173-2.328-10.685-15.476-3.45-32.275-5.814-45.509,7.42-27.537,27.538,12.441,68.909-10,91.355a4.948,4.948,0,0,0,7,7c27.77-27.769-12.644-68.705,10.005-91.354,10.679-10.679,24.657-7.491,40.839-3.733Zm0,0" transform="translate(-91.168 -94.44)" fill="#45748c"/>
    <path id="Path_1289" data-name="Path 1289" d="M310.771,139.9c-1.9-.423-3.809-.828-5.735-1.192.608,3.531,1.388,7.036,2.2,10.541,1.92.42,3.877.874,5.865,1.336-.825-3.542-1.664-7.173-2.328-10.685Zm0,0" transform="translate(-216.564 -98.124)" fill="#3a6175"/>
    <path id="Path_1290" data-name="Path 1290" d="M403.58,130.362a4.948,4.948,0,0,0-7,0c-9.43,9.43-21.432,8.046-35.253,5.007.791,3.591,1.643,7.095,2.422,10.592,15.286,2.89,28.836,2.392,39.829-8.6a4.949,4.949,0,0,0,0-7Zm0,0" transform="translate(-256.529 -91.168)" fill="#45748c"/>
    <path id="Path_1291" data-name="Path 1291" d="M366.813,152.288c-1.793-.327-3.623-.707-5.485-1.116.791,3.592,1.643,7.095,2.422,10.592,1.8.341,3.616.645,5.433.888-.735-3.352-1.591-6.891-2.37-10.364Zm0,0" transform="translate(-256.529 -106.972)" fill="#3a6175"/>
  </g>
</svg>
