<svg xmlns="http://www.w3.org/2000/svg" width="148.579" height="148.5" viewBox="0 0 148.579 148.5">
  <g id="svgexport-6_17_" data-name="svgexport-6 (17)" transform="translate(0 -0.136)">
    <path id="Path_1477" data-name="Path 1477" d="M78.93,4.493v139.6a4.348,4.348,0,0,1-4.289,4.35.471.471,0,0,1-.064,0,4.352,4.352,0,0,1-4.353-4.353V78.637H4.766a4.353,4.353,0,1,1,0-8.705h65.46V4.493A4.352,4.352,0,0,1,74.578.14a.47.47,0,0,1,.064,0A4.348,4.348,0,0,1,78.93,4.493Z" transform="translate(-0.293 -0.003)" fill="#ffa81f"/>
    <g id="Group_55670" data-name="Group 55670" transform="translate(74.348 0.14)">
      <path id="Path_1478" data-name="Path 1478" d="M353.948,240.638H299.816a4.353,4.353,0,1,0,0,8.705h54.132a4.353,4.353,0,0,0,0-8.705Z" transform="translate(-284.07 -170.85)" fill="#ff8700"/>
      <path id="Path_1479" data-name="Path 1479" d="M260.492,4.5V144.1a4.348,4.348,0,0,1-4.289,4.35V.15A4.348,4.348,0,0,1,260.492,4.5Z" transform="translate(-256.203 -0.15)" fill="#ff8700"/>
    </g>
    <g id="Group_55671" data-name="Group 55671" transform="translate(62.336 0.136)">
      <path id="Path_1480" data-name="Path 1480" d="M234.351,8.841H219.161a4.353,4.353,0,1,1,0-8.705h15.191a4.353,4.353,0,0,1,0,8.705Z" transform="translate(-214.808 -0.136)" fill="#ff4f19"/>
      <path id="Path_1481" data-name="Path 1481" d="M234.351,124.342H219.161a4.353,4.353,0,1,1,0-8.705h15.191a4.353,4.353,0,0,1,0,8.705Z" transform="translate(-214.808 -82.119)" fill="#ff4f19"/>
    </g>
    <g id="Group_55672" data-name="Group 55672" transform="translate(0 62.34)">
      <path id="Path_1482" data-name="Path 1482" d="M4.353,238.387A4.352,4.352,0,0,1,0,234.034V218.844a4.353,4.353,0,0,1,8.705,0v15.191A4.352,4.352,0,0,1,4.353,238.387Z" transform="translate(0 -214.491)" fill="#ff7a53"/>
      <path id="Path_1483" data-name="Path 1483" d="M119.854,238.387a4.353,4.353,0,0,1-4.353-4.353v-15.19a4.353,4.353,0,0,1,8.705,0v15.191A4.352,4.352,0,0,1,119.854,238.387Z" transform="translate(-81.983 -214.491)" fill="#ff7a53"/>
    </g>
    <g id="Group_55673" data-name="Group 55673" transform="translate(62.401 62.332)">
      <path id="Path_1484" data-name="Path 1484" d="M370.814,238.359a4.353,4.353,0,0,1-4.353-4.353V218.816a4.353,4.353,0,0,1,8.705,0v15.191A4.353,4.353,0,0,1,370.814,238.359Z" transform="translate(-322.518 -214.463)" fill="#ff4f19"/>
      <path id="Path_1485" data-name="Path 1485" d="M486.316,238.359a4.353,4.353,0,0,1-4.353-4.353V218.816a4.353,4.353,0,1,1,8.705,0v15.191A4.352,4.352,0,0,1,486.316,238.359Z" transform="translate(-404.502 -214.463)" fill="#ff4f19"/>
      <path id="Path_1486" data-name="Path 1486" d="M234.576,490.571H219.386a4.353,4.353,0,0,1,0-8.705h15.191a4.353,4.353,0,1,1,0,8.705Z" transform="translate(-215.033 -404.267)" fill="#ff4f19"/>
      <path id="Path_1487" data-name="Path 1487" d="M234.576,375.071H219.386a4.353,4.353,0,0,1,0-8.705h15.191a4.353,4.353,0,1,1,0,8.705Z" transform="translate(-215.033 -322.285)" fill="#ff4f19"/>
    </g>
    <path id="Path_1488" data-name="Path 1488" d="M369.922,57.286A51.951,51.951,0,0,1,318.031,5.395V4.489a4.353,4.353,0,1,1,8.705,0v.906a43.236,43.236,0,0,0,43.187,43.187,4.352,4.352,0,1,1,0,8.7Z" transform="translate(-225.741)" fill="#4b5be4"/>
    <path id="Path_1489" data-name="Path 1489" d="M51.933,371.694a4.353,4.353,0,0,1-4.353-4.353v-.906A43.236,43.236,0,0,0,4.394,323.248a4.353,4.353,0,1,1,0-8.705,51.951,51.951,0,0,1,51.891,51.892v.906A4.352,4.352,0,0,1,51.933,371.694Z" transform="translate(-0.029 -223.168)" fill="#6b77e8"/>
  </g>
</svg>
