<svg id="Group_55678" data-name="Group 55678" xmlns="http://www.w3.org/2000/svg" width="120.258" height="148.5" viewBox="0 0 120.258 148.5">
  <g id="Group_55675" data-name="Group 55675" transform="translate(89.765 13.234)">
    <g id="Group_55674" data-name="Group 55674">
      <path id="Path_1490" data-name="Path 1490" d="M360.421,57.085a2.24,2.24,0,0,1-1.584-3.824l6.976-6.976a2.24,2.24,0,0,1,3.168,3.168l-6.976,6.976A2.233,2.233,0,0,1,360.421,57.085Z" transform="translate(-358.181 -45.629)" fill="#456b93"/>
    </g>
  </g>
  <g id="Group_55677" data-name="Group 55677" transform="translate(13.235 89.765)">
    <g id="Group_55676" data-name="Group 55676">
      <path id="Path_1491" data-name="Path 1491" d="M96.56,320.949a2.24,2.24,0,0,1-1.584-3.824l6.975-6.975a2.24,2.24,0,1,1,3.168,3.168l-6.975,6.975A2.233,2.233,0,0,1,96.56,320.949Z" transform="translate(-94.32 -309.494)" fill="#456b93"/>
    </g>
  </g>
  <path id="Path_1492" data-name="Path 1492" d="M225.99,402.781V425.5H215.685V403.758Z" transform="translate(-167.249 -285.959)" fill="#ce8a6b"/>
  <path id="Path_1493" data-name="Path 1493" d="M188.04,482.4v.348H125.31V482.4a11.6,11.6,0,0,1,11.6-11.6h39.527A11.6,11.6,0,0,1,188.04,482.4Z" transform="translate(-103.087 -334.25)" fill="#456b93"/>
  <path id="Path_1494" data-name="Path 1494" d="M152.194,470.8a11.952,11.952,0,0,0-11.95,11.95H125.31V482.4a11.6,11.6,0,0,1,11.6-11.6Z" transform="translate(-103.087 -334.25)" fill="#3b4f66"/>
  <path id="Path_1495" data-name="Path 1495" d="M149.08,50.2A49.912,49.912,0,0,1,145.261,69.4h0A50.186,50.186,0,1,1,149.08,50.2Z" transform="translate(-48.688 0)" fill="#64b9fc"/>
  <path id="Path_1496" data-name="Path 1496" d="M107.838,99.59a50.194,50.194,0,1,1,0-98.791,50.2,50.2,0,0,0,0,98.791Z" transform="translate(-48.688 0)" fill="#31a7fb"/>
  <path id="Path_1497" data-name="Path 1497" d="M276.371,61.167a49.912,49.912,0,0,1-3.819,19.208H259.518q-6-.564-6.564-6.564a6.563,6.563,0,0,0-6.564-6.564h-8.947a9.465,9.465,0,0,1-9.462-9.463V43.145q.817-8.647,9.462-9.463a9.459,9.459,0,0,0,9.459-9.459V15.453A50.266,50.266,0,0,1,276.371,61.167Z" transform="translate(-175.979 -10.971)" fill="#76fca3"/>
  <path id="Path_1498" data-name="Path 1498" d="M98.884,180.638v19.086a50.222,50.222,0,0,1-49.272-59.813H63.166a11.9,11.9,0,0,1,11.906,11.9v5.016a11.9,11.9,0,0,0,11.906,11.906A12.009,12.009,0,0,1,98.884,180.638Z" transform="translate(-48.688 -99.331)" fill="#76fca3"/>
  <path id="Path_1499" data-name="Path 1499" d="M98.884,196.417v3.307a50.222,50.222,0,0,1-49.272-59.813H63.166a11.856,11.856,0,0,1,4.217.77,50.227,50.227,0,0,0,31.5,55.735Z" transform="translate(-48.688 -99.331)" fill="#5ede8b"/>
  <path id="Path_1500" data-name="Path 1500" d="M107.869,129.286a70.113,70.113,0,0,1-44.69-16.14,5.078,5.078,0,0,1,6.487-7.814,59.874,59.874,0,0,0,84.324-84.295,5.078,5.078,0,1,1,7.817-6.484,70.029,70.029,0,0,1-53.937,114.733Z" transform="translate(-57.673 -9.028)" fill="#e29e7a"/>
</svg>
