<svg xmlns="http://www.w3.org/2000/svg" width="147.3" height="148.5" viewBox="0 0 147.3 148.5">
  <g id="svgexport-6_16_" data-name="svgexport-6 (16)" transform="translate(-2.068)">
    <g id="Group_55669" data-name="Group 55669" transform="translate(21.411 8.097)">
      <path id="Path_1457" data-name="Path 1457" d="M357.877,68.158a2.208,2.208,0,0,1-1.836-3.431L379.883,28.9a2.208,2.208,0,0,1,3.676,2.446L359.717,67.173a2.206,2.206,0,0,1-1.84.985Z" transform="translate(-272.455 -27.918)" fill="#b1dbfc"/>
      <path id="Path_1458" data-name="Path 1458" d="M285.326,136.637a2.2,2.2,0,0,1-.987-.234L263.86,126.146a2.208,2.208,0,1,1,1.977-3.948l20.479,10.257a2.208,2.208,0,0,1-.991,4.182Z" transform="translate(-206.407 -94.687)" fill="#b1dbfc"/>
      <path id="Path_1459" data-name="Path 1459" d="M164.056,153.735a2.208,2.208,0,0,1-1.562-3.767l21.286-21.323a2.208,2.208,0,0,1,3.125,3.119l-21.286,21.323a2.2,2.2,0,0,1-1.562.648Z" transform="translate(-134.849 -98.97)" fill="#b1dbfc"/>
      <path id="Path_1460" data-name="Path 1460" d="M70.969,235.86a2.208,2.208,0,0,1-1.009-4.173l18.36-9.419a2.208,2.208,0,1,1,2.015,3.928l-18.36,9.419A2.193,2.193,0,0,1,70.969,235.86Z" transform="translate(-68.759 -165.726)" fill="#b1dbfc"/>
    </g>
    <circle id="Ellipse_589" data-name="Ellipse 589" cx="6.826" cy="6.826" r="6.826" transform="translate(11.618 71.714)" fill="#ff656f"/>
    <circle id="Ellipse_590" data-name="Ellipse 590" cx="6.826" cy="6.826" r="6.826" transform="translate(40.255 57.371)" fill="#ffa85d"/>
    <circle id="Ellipse_591" data-name="Ellipse 591" cx="6.826" cy="6.826" r="6.826" transform="translate(68.892 28.686)" fill="#fee55a"/>
    <circle id="Ellipse_592" data-name="Ellipse 592" cx="6.826" cy="6.826" r="6.826" transform="translate(97.529 43.028)" fill="#43cb8e"/>
    <circle id="Ellipse_593" data-name="Ellipse 593" cx="6.826" cy="6.826" r="6.826" transform="translate(126.166 0)" fill="#23a8fe"/>
    <path id="Path_1461" data-name="Path 1461" d="M42.452,254.082a6.819,6.819,0,0,1,3.1-5.717,6.826,6.826,0,1,0,0,11.434A6.817,6.817,0,0,1,42.452,254.082Z" transform="translate(-23.377 -175.541)" fill="#ff4756"/>
    <path id="Path_1462" data-name="Path 1462" d="M141.186,204.631a6.819,6.819,0,0,1,3.1-5.717,6.826,6.826,0,1,0,0,11.434A6.818,6.818,0,0,1,141.186,204.631Z" transform="translate(-93.474 -140.433)" fill="#ff9839"/>
    <path id="Path_1463" data-name="Path 1463" d="M239.921,105.729a6.819,6.819,0,0,1,3.1-5.717,6.826,6.826,0,1,0,0,11.434A6.818,6.818,0,0,1,239.921,105.729Z" transform="translate(-163.572 -70.217)" fill="#ffd301"/>
    <path id="Path_1464" data-name="Path 1464" d="M338.656,155.18a6.819,6.819,0,0,1,3.1-5.717,6.826,6.826,0,1,0,0,11.434A6.817,6.817,0,0,1,338.656,155.18Z" transform="translate(-233.67 -105.325)" fill="#00ba66"/>
    <path id="Path_1465" data-name="Path 1465" d="M437.39,6.826a6.819,6.819,0,0,1,3.1-5.717,6.826,6.826,0,1,0-3.728,12.544,6.791,6.791,0,0,0,3.728-1.109,6.819,6.819,0,0,1-3.1-5.717Z" transform="translate(-303.767)" fill="#0193fa"/>
    <path id="Path_1466" data-name="Path 1466" d="M43.323,357.91H28.557a1.846,1.846,0,0,0-1.846,1.846v40.638H45.169V359.756A1.847,1.847,0,0,0,43.323,357.91Z" transform="translate(-17.496 -254.102)" fill="#ff656f"/>
    <path id="Path_1467" data-name="Path 1467" d="M142.057,308.459H127.291a1.846,1.846,0,0,0-1.846,1.846v54.981H143.9V310.305A1.846,1.846,0,0,0,142.057,308.459Z" transform="translate(-87.593 -218.994)" fill="#ffa85d"/>
    <path id="Path_1468" data-name="Path 1468" d="M240.792,209.126H226.026a1.846,1.846,0,0,0-1.846,1.846v83.792h18.458V210.972A1.847,1.847,0,0,0,240.792,209.126Z" transform="translate(-157.691 -148.471)" fill="#fee55a"/>
    <path id="Path_1469" data-name="Path 1469" d="M339.527,259.008H324.761a1.846,1.846,0,0,0-1.846,1.846v69.324h18.458V260.854A1.847,1.847,0,0,0,339.527,259.008Z" transform="translate(-227.789 -183.886)" fill="#43cb8e"/>
    <path id="Path_1470" data-name="Path 1470" d="M438.261,109.959H423.5a1.846,1.846,0,0,0-1.846,1.846V224.359h18.458V111.805a1.846,1.846,0,0,0-1.846-1.846Z" transform="translate(-297.886 -78.067)" fill="#23a8fe"/>
    <path id="Path_1471" data-name="Path 1471" d="M39.9,357.91H28.557a1.846,1.846,0,0,0-1.846,1.846v40.638H38.055V359.756A1.846,1.846,0,0,1,39.9,357.91Z" transform="translate(-17.496 -254.102)" fill="#ff4756"/>
    <path id="Path_1472" data-name="Path 1472" d="M138.635,308.459H127.291a1.846,1.846,0,0,0-1.846,1.846v54.981h11.344V310.305A1.846,1.846,0,0,1,138.635,308.459Z" transform="translate(-87.593 -218.994)" fill="#ff9839"/>
    <path id="Path_1473" data-name="Path 1473" d="M237.37,209.126H226.026a1.846,1.846,0,0,0-1.846,1.846v83.792h11.344V210.972a1.846,1.846,0,0,1,1.846-1.846Z" transform="translate(-157.691 -148.471)" fill="#ffd301"/>
    <path id="Path_1474" data-name="Path 1474" d="M336.1,259.008H324.761a1.846,1.846,0,0,0-1.846,1.846v69.324h11.344V260.854a1.846,1.846,0,0,1,1.846-1.846Z" transform="translate(-227.789 -183.886)" fill="#00ba66"/>
    <path id="Path_1475" data-name="Path 1475" d="M434.839,109.959H423.5a1.846,1.846,0,0,0-1.846,1.846V224.359h11.344V111.805a1.846,1.846,0,0,1,1.846-1.846Z" transform="translate(-297.886 -78.067)" fill="#0193fa"/>
    <path id="Path_1476" data-name="Path 1476" d="M147.161,501.192H4.276a2.208,2.208,0,0,1,0-4.415H147.161a2.208,2.208,0,0,1,0,4.415Z" transform="translate(0 -352.692)" fill="#23a8fe"/>
  </g>
</svg>
