<svg xmlns="http://www.w3.org/2000/svg" width="132.32" height="148.5" viewBox="0 0 132.32 148.5">
  <g id="svgexport-6_2_" data-name="svgexport-6 (2)" transform="translate(-27.893)">
    <path id="Path_1254" data-name="Path 1254" d="M185,148.5c-6.063,0-14.721-4.056-21.535-23.377C158.652,111.468,156,93.4,156,74.25s2.652-37.218,7.469-50.873C170.283,4.056,178.941,0,185,0s14.721,4.056,21.535,23.377c4.816,13.655,7.469,31.722,7.469,50.873s-2.652,37.218-7.469,50.873C199.725,144.444,191.067,148.5,185,148.5ZM185,8.7c-4.4,0-9.507,6.732-13.33,17.57-4.5,12.749-6.973,29.788-6.973,47.979s2.476,35.23,6.973,47.979C175.5,133.067,180.6,139.8,185,139.8s9.507-6.732,13.33-17.57c4.5-12.749,6.973-29.788,6.973-47.979s-2.476-35.23-6.973-47.979C194.511,15.433,189.4,8.7,185,8.7Z" transform="translate(-90.951)" fill="#ffe645"/>
    <path id="Path_1255" data-name="Path 1255" d="M139.421,190.37a66.248,66.248,0,0,1-12.078-1.244c-14.234-2.657-31.207-9.393-47.792-18.969s-30.906-20.906-40.323-31.9C25.9,122.69,26.719,113.165,29.75,107.914s10.872-10.721,31.012-6.962c14.234,2.657,31.207,9.393,47.792,18.969s30.906,20.906,40.323,31.9c13.325,15.562,12.509,25.088,9.477,30.339-2.331,4.038-7.507,8.206-18.934,8.206ZM48.767,108.436c-5.891,0-10.03,1.315-11.481,3.828-2.2,3.81,1.077,11.6,8.551,20.329,8.793,10.269,22.311,20.933,38.065,30.029s31.748,15.47,45.038,17.951c11.3,2.108,19.681,1.051,21.881-2.759s-1.077-11.6-8.551-20.329c-8.793-10.269-22.311-20.933-38.065-30.029s-31.748-15.47-45.038-17.951a57.552,57.552,0,0,0-10.4-1.069Z" transform="translate(0 -70.789)" fill="#21b572"/>
    <path id="Path_1256" data-name="Path 1256" d="M270.5,150.779c-4.827-2.787-9.686-5.331-14.5-7.607v9.672c3.375,1.69,6.769,3.517,10.151,5.47,15.753,9.1,29.272,19.76,38.065,30.029,7.474,8.729,10.751,16.518,8.551,20.329s-10.583,4.867-21.881,2.759c-10.436-1.948-22.541-6.3-34.886-12.481v9.672c11.731,5.543,23.2,9.479,33.29,11.362a66.252,66.252,0,0,0,12.078,1.244c11.427,0,16.6-4.168,18.934-8.206,3.031-5.251,3.848-14.777-9.477-30.339C301.408,171.685,287.087,160.354,270.5,150.779Z" transform="translate(-161.947 -101.647)" fill="#148253"/>
    <path id="Path_1257" data-name="Path 1257" d="M48.684,190.369c-11.428,0-16.6-4.168-18.934-8.206-3.031-5.251-3.848-14.777,9.477-30.339,9.418-11,23.738-22.329,40.323-31.9s33.558-16.312,47.792-18.969c20.139-3.759,27.981,1.711,31.012,6.962s3.848,14.777-9.477,30.339c-9.418,11-23.738,22.329-40.323,31.9S75,186.468,60.763,189.125a66.242,66.242,0,0,1-12.078,1.244Zm90.654-81.933a57.508,57.508,0,0,0-10.4,1.069c-13.29,2.48-29.284,8.855-45.038,17.951s-29.272,19.76-38.065,30.029c-7.474,8.729-10.751,16.518-8.551,20.329s10.584,4.867,21.881,2.759c13.29-2.48,29.284-8.855,45.038-17.951s29.272-19.76,38.065-30.029c7.474-8.729,10.751-16.518,8.551-20.329-1.45-2.512-5.591-3.828-11.481-3.828Z" transform="translate(0 -70.788)" fill="#8fd4ff"/>
    <path id="Path_1258" data-name="Path 1258" d="M289.29,100.952c-10.091,1.884-21.559,5.82-33.29,11.362v9.672c12.346-6.182,24.45-10.533,34.886-12.481a57.535,57.535,0,0,1,10.4-1.069c5.89,0,10.031,1.316,11.481,3.828,2.2,3.81-1.077,11.6-8.551,20.329-8.793,10.269-22.311,20.933-38.065,30.029-3.382,1.953-6.776,3.779-10.151,5.47v9.672c4.816-2.275,9.675-4.82,14.5-7.607,16.585-9.576,30.906-20.906,40.323-31.9,13.325-15.562,12.509-25.088,9.477-30.339s-10.873-10.721-31.012-6.962Z" transform="translate(-161.947 -70.788)" fill="#72c5fc"/>
    <path id="Path_1259" data-name="Path 1259" d="M269.33,26.271c4.5,12.749,6.973,29.788,6.973,47.979s-2.476,35.23-6.973,47.979c-3.822,10.838-8.93,17.57-13.33,17.57v8.7c6.063,0,14.721-4.056,21.535-23.377C282.352,111.468,285,93.4,285,74.25s-2.652-37.218-7.469-50.873C270.721,4.056,262.063,0,256,0V8.7c4.4,0,9.507,6.732,13.33,17.57Z" transform="translate(-161.947)" fill="#ffa81c"/>
    <path id="Path_1260" data-name="Path 1260" d="M234.7,243.393a8.7,8.7,0,1,1,8.7-8.7A8.711,8.711,0,0,1,234.7,243.393Z" transform="translate(-140.644 -160.445)" fill="#ec6600"/>
    <path id="Path_1261" data-name="Path 1261" d="M377.212,102.126a8.849,8.849,0,1,1,8.849-8.849A8.86,8.86,0,0,1,377.212,102.126Z" transform="translate(-241.721 -59.94)" fill="#2698d1"/>
    <path id="Path_1262" data-name="Path 1262" d="M285.947,435.7a8.849,8.849,0,1,1,8.85-8.849A8.86,8.86,0,0,1,285.947,435.7Z" transform="translate(-176.926 -296.767)" fill="#ec6600"/>
    <path id="Path_1263" data-name="Path 1263" d="M41.137,189.925a8.85,8.85,0,1,1,8.849-8.849A8.86,8.86,0,0,1,41.137,189.925Z" transform="translate(-3.121 -122.274)" fill="#148253"/>
  </g>
</svg>
