<svg xmlns="http://www.w3.org/2000/svg" width="148.5" height="148.5" viewBox="0 0 148.5 148.5">
  <g id="svgexport-6_3_" data-name="svgexport-6 (3)" transform="translate(-48 -16)">
    <g id="Group_55592" data-name="Group 55592" transform="translate(48 16)">
      <g id="Group_55579" data-name="Group 55579" transform="translate(62.822 39.6)">
        <g id="Group_55570" data-name="Group 55570" transform="translate(0 9.9)">
          <path id="Path_1264" data-name="Path 1264" d="M298.011,260.406,271.219,210.65V176h-29.7v34.65l-26.792,49.756A9.9,9.9,0,0,0,223.444,275h65.85a9.9,9.9,0,0,0,8.717-14.594Z" transform="translate(-213.53 -176)" fill="#5ad7ff"/>
        </g>
        <g id="Group_55571" data-name="Group 55571" transform="translate(23.039)">
          <path id="Path_1265" data-name="Path 1265" d="M322.65,153.9h-29.7a4.95,4.95,0,0,1,0-9.9h29.7a4.95,4.95,0,0,1,0,9.9Z" transform="translate(-288 -144)" fill="#5ad7ff"/>
        </g>
        <g id="Group_55572" data-name="Group 55572" transform="translate(27.989 9.9)">
          <path id="Path_1266" data-name="Path 1266" d="M360.492,260.406,333.7,210.65V176H304v4.95h9.9a4.95,4.95,0,0,1,4.95,4.95v24.75L330.9,262.874A9.9,9.9,0,0,1,321.255,275h30.52A9.9,9.9,0,0,0,360.492,260.406Z" transform="translate(-304 -176)" fill="#23aae6"/>
        </g>
        <g id="Group_55573" data-name="Group 55573" transform="translate(4.947 64.35)">
          <path id="Path_1267" data-name="Path 1267" d="M284.347,352H250.481a4.951,4.951,0,0,0-4.358,2.6L230.13,384.3a4.95,4.95,0,0,0,4.358,7.3h65.851a4.95,4.95,0,0,0,4.358-7.3l-15.992-29.7A4.951,4.951,0,0,0,284.347,352Z" transform="translate(-229.522 -352)" fill="#ffd205"/>
        </g>
        <g id="Group_55574" data-name="Group 55574" transform="translate(47.408 64.35)">
          <path id="Path_1268" data-name="Path 1268" d="M379.133,352H366.769l7.483,32.424a9.825,9.825,0,0,1-1.075,7.176h21.949a4.95,4.95,0,0,0,4.358-7.3l-15.992-29.7A4.951,4.951,0,0,0,379.133,352Z" transform="translate(-366.769 -352)" fill="#faa019"/>
        </g>
        <g id="Group_55575" data-name="Group 55575" transform="translate(7.171 19.8)">
          <path id="Path_1269" data-name="Path 1269" d="M239.182,284.725a2.476,2.476,0,0,1-2.177-3.649l25.176-46.752a2.483,2.483,0,0,0,.3-1.173V210.475a2.475,2.475,0,1,1,4.95,0v22.676a7.446,7.446,0,0,1-.888,3.521l-25.176,46.752a2.474,2.474,0,0,1-2.181,1.3Z" transform="translate(-236.708 -208)" fill="#a5ffff"/>
        </g>
        <g id="Group_55576" data-name="Group 55576" transform="translate(23.039 84.15)">
          <circle id="Ellipse_578" data-name="Ellipse 578" cx="7.425" cy="7.425" r="7.425" fill="#faa019"/>
        </g>
        <g id="Group_55577" data-name="Group 55577" transform="translate(35.414 69.3)">
          <circle id="Ellipse_579" data-name="Ellipse 579" cx="4.95" cy="4.95" r="4.95" fill="#faa019"/>
        </g>
        <g id="Group_55578" data-name="Group 55578" transform="translate(57.689 84.15)">
          <circle id="Ellipse_580" data-name="Ellipse 580" cx="4.95" cy="4.95" r="4.95" fill="#ffd205"/>
        </g>
      </g>
      <g id="Group_55588" data-name="Group 55588" transform="translate(0 39.6)">
        <g id="Group_55580" data-name="Group 55580" transform="translate(4.95 9.9)">
          <path id="Path_1270" data-name="Path 1270" d="M83.8,275a19.8,19.8,0,0,0,19.8-19.8V176H64v79.2A19.8,19.8,0,0,0,83.8,275Z" transform="translate(-64 -176)" fill="#5ad7ff"/>
        </g>
        <g id="Group_55581" data-name="Group 55581">
          <path id="Path_1271" data-name="Path 1271" d="M92.55,153.9H52.95a4.95,4.95,0,1,1,0-9.9h39.6a4.95,4.95,0,1,1,0,9.9Z" transform="translate(-48 -144)" fill="#5ad7ff"/>
        </g>
        <g id="Group_55582" data-name="Group 55582" transform="translate(4.95 9.9)">
          <path id="Path_1272" data-name="Path 1272" d="M64,176v4.95H78.85a4.95,4.95,0,0,1,4.95,4.95v69.3a9.9,9.9,0,0,1-19.8,0,19.8,19.8,0,1,0,39.6,0V176Z" transform="translate(-64 -176)" fill="#23aae6"/>
        </g>
        <g id="Group_55583" data-name="Group 55583" transform="translate(9.9 64.35)">
          <path id="Path_1273" data-name="Path 1273" d="M94.85,391.6A14.85,14.85,0,0,1,80,376.75V354.475A2.475,2.475,0,0,1,82.475,352h24.75a2.475,2.475,0,0,1,2.475,2.475V376.75A14.85,14.85,0,0,1,94.85,391.6Z" transform="translate(-80 -352)" fill="#ffd205"/>
        </g>
        <g id="Group_55584" data-name="Group 55584" transform="translate(13.616 64.35)">
          <path id="Path_1274" data-name="Path 1274" d="M115.519,352H103.144v24.75a9.883,9.883,0,0,1-11.134,9.82,14.847,14.847,0,0,0,25.984-9.82V354.475A2.475,2.475,0,0,0,115.519,352Z" transform="translate(-92.01 -352)" fill="#faa019"/>
        </g>
        <g id="Group_55585" data-name="Group 55585" transform="translate(12.375 74.25)">
          <circle id="Ellipse_581" data-name="Ellipse 581" cx="4.95" cy="4.95" r="4.95" fill="#faa019"/>
        </g>
        <g id="Group_55586" data-name="Group 55586" transform="translate(29.7 69.3)">
          <circle id="Ellipse_582" data-name="Ellipse 582" cx="2.475" cy="2.475" r="2.475" fill="#ffd205"/>
        </g>
        <g id="Group_55587" data-name="Group 55587" transform="translate(9.9 19.8)">
          <path id="Path_1275" data-name="Path 1275" d="M82.475,279.775A2.475,2.475,0,0,1,80,277.3V210.475a2.475,2.475,0,0,1,4.95,0V277.3A2.475,2.475,0,0,1,82.475,279.775Z" transform="translate(-80 -208)" fill="#a5ffff"/>
        </g>
      </g>
      <g id="Group_55589" data-name="Group 55589" transform="translate(19.8 0)">
        <path id="Path_1276" data-name="Path 1276" d="M121.9,55.6H112V32.5a16.5,16.5,0,1,1,33,0v.825h-9.9V32.5a6.6,6.6,0,0,0-13.2,0Z" transform="translate(-112 -16)" fill="#d7e6f0"/>
      </g>
      <g id="Group_55590" data-name="Group 55590" transform="translate(47.695 17.325)">
        <path id="Path_1277" data-name="Path 1277" d="M203.167,89.325a16.519,16.519,0,0,1-16.5-16.5V72h9.9v.825a6.6,6.6,0,0,0,13.2,0V72h9.9v.825A16.519,16.519,0,0,1,203.167,89.325Z" transform="translate(-186.667 -72)" fill="#a5c3dc"/>
      </g>
      <g id="Group_55591" data-name="Group 55591" transform="translate(73.376 0)">
        <path id="Path_1278" data-name="Path 1278" d="M294.333,55.6h-9.9V32.5a6.6,6.6,0,0,0-13.2,0v.825h-9.9V32.5a16.5,16.5,0,0,1,33,0Z" transform="translate(-261.333 -16)" fill="#d7e6f0"/>
      </g>
    </g>
  </g>
</svg>
