<svg xmlns="http://www.w3.org/2000/svg" width="198.747" height="148.5" viewBox="0 0 198.747 148.5">
  <g id="svgexport-6_15_" data-name="svgexport-6 (15)" transform="translate(0 -62.826)">
    <g id="Group_55668" data-name="Group 55668" transform="translate(0 62.826)">
      <path id="Path_1441" data-name="Path 1441" d="M67.872,93.513a8.148,8.148,0,0,1-8.147-8.147V70.973a8.147,8.147,0,1,1,16.295,0V85.366A8.148,8.148,0,0,1,67.872,93.513Z" transform="translate(-35.841 -62.826)" fill="#537983"/>
      <path id="Path_1442" data-name="Path 1442" d="M73.987,62.826a8.1,8.1,0,0,0-4.073,1.1,8.137,8.137,0,0,1,4.074,7.049V85.366a8.138,8.138,0,0,1-4.074,7.049,8.137,8.137,0,0,0,12.22-7.049V70.973A8.147,8.147,0,0,0,73.987,62.826Z" transform="translate(-41.956 -62.826)" fill="#3e5959"/>
      <path id="Path_1443" data-name="Path 1443" d="M404.265,93.513a8.148,8.148,0,0,1-8.147-8.147V70.973a8.147,8.147,0,0,1,16.295,0V85.366A8.148,8.148,0,0,1,404.265,93.513Z" transform="translate(-237.713 -62.826)" fill="#537983"/>
      <path id="Path_1444" data-name="Path 1444" d="M410.379,62.826a8.1,8.1,0,0,0-4.073,1.1,8.137,8.137,0,0,1,4.074,7.049V85.366a8.138,8.138,0,0,1-4.074,7.049,8.138,8.138,0,0,0,12.221-7.049V70.973A8.147,8.147,0,0,0,410.379,62.826Z" transform="translate(-243.827 -62.826)" fill="#3e5959"/>
      <path id="Path_1445" data-name="Path 1445" d="M201.85,228.186H15.5V120.391a6.854,6.854,0,0,1,6.854-6.854H195a6.854,6.854,0,0,1,6.854,6.854Z" transform="translate(-9.302 -93.258)" fill="#0ed290"/>
      <path id="Path_1446" data-name="Path 1446" d="M448.705,113.537H438.273a6.854,6.854,0,0,1,6.854,6.854v107.8h10.432v-107.8A6.854,6.854,0,0,0,448.705,113.537Z" transform="translate(-263.01 -93.258)" fill="#00c285"/>
      <path id="Path_1447" data-name="Path 1447" d="M403.477,379.32H351.484V365.635a5.65,5.65,0,0,1,5.65-5.65h40.692a5.65,5.65,0,0,1,5.65,5.65V379.32Z" transform="translate(-210.928 -241.153)" fill="#6c7fd8"/>
      <path id="Path_1448" data-name="Path 1448" d="M451.716,359.985H441.284a5.65,5.65,0,0,1,5.65,5.65V379.32h10.432V365.635A5.65,5.65,0,0,0,451.716,359.985Z" transform="translate(-264.817 -241.153)" fill="#4f66d0"/>
      <path id="Path_1449" data-name="Path 1449" d="M195.547,397.349H3.2a3.2,3.2,0,0,0-3.2,3.2v8.326a3.2,3.2,0,0,0,3.2,3.2H195.547a3.2,3.2,0,0,0,3.2-3.2v-8.326A3.2,3.2,0,0,0,195.547,397.349Z" transform="translate(0 -263.575)" fill="#ffcebf"/>
      <path id="Path_1450" data-name="Path 1450" d="M454.872,397.349a3.486,3.486,0,0,1,3.486,3.486v7.754a3.486,3.486,0,0,1-3.486,3.486h13.646a3.2,3.2,0,0,0,3.2-3.2v-8.326a3.2,3.2,0,0,0-3.2-3.2Z" transform="translate(-272.972 -263.575)" fill="#ffb09e"/>
      <g id="Group_55667" data-name="Group 55667" transform="translate(19.89 36.532)">
        <path id="Path_1451" data-name="Path 1451" d="M306.8,220.615a3,3,0,0,0-3.814,1.855l-5.8,16.785-5.958-16.808a3,3,0,1,0-5.654,2l8.469,23.892-3.093,8.947a3,3,0,0,0,1.855,3.815,3.138,3.138,0,0,0,3.814-1.855l12.039-34.822a3,3,0,0,0-1.855-3.814Z" transform="translate(-191.16 -193.949)" fill="#e2f1fe"/>
        <path id="Path_1452" data-name="Path 1452" d="M116.518,234.457l6.937-9.2a3,3,0,0,0-4.79-3.611l-5.916,7.847-5.96-7.854a3,3,0,0,0-4.778,3.626L109,234.469l-7.875,10.444a3,3,0,0,0,.589,4.2,3.141,3.141,0,0,0,4.2-.589l6.854-9.09,7.218,9.511c.952.865,2.081,1.824,4.2.576a3,3,0,0,0,.576-4.2Z" transform="translate(-80.211 -193.95)" fill="#e2f1fe"/>
        <path id="Path_1453" data-name="Path 1453" d="M214.919,237.291h-6.11v-6.11a3,3,0,0,0-6,0v6.11h-6.329a3,3,0,0,0,0,6h6.329v6.329a3,3,0,1,0,6,0V243.29h6.11a3,3,0,1,0,0-6Z" transform="translate(-136 -198.589)" fill="#e2f1fe"/>
        <path id="Path_1454" data-name="Path 1454" d="M55.837,215.946a3,3,0,0,0-3.9,1.671c-.2.493-4.778,12.282-.113,29.777A3.157,3.157,0,0,0,55.5,249.52a3,3,0,0,0,2.125-3.671c-4.109-15.412-.17-25.86-.109-26.015a3,3,0,0,0-1.675-3.889Z" transform="translate(-49.738 -191.118)" fill="#e2f1fe"/>
        <path id="Path_1455" data-name="Path 1455" d="M376.665,213.824a3,3,0,0,0-1.671,3.9c.041.1,4.043,10.412-.113,26a3,3,0,0,0,2.125,3.671,3.135,3.135,0,0,0,3.671-2.125c4.664-17.5.084-29.284-.113-29.777a3,3,0,0,0-3.9-1.671Z" transform="translate(-244.797 -189.844)" fill="#e2f1fe"/>
        <path id="Path_1456" data-name="Path 1456" d="M418.192,175.233h-.038c-1.61.02-3.3.035-4.835.042,1.066-1.444,2.43-3.33,4.15-5.787,1.383-2.124,2.735-4.39,2.844-7.013a8.3,8.3,0,0,0-16.434-1.6,3,3,0,1,0,5.886,1.156,2.3,2.3,0,0,1,4.544.3l-.052.4a10.8,10.8,0,0,1-1.7,3.322c-3.27,4.672-5.221,7.226-6.269,8.6-1.349,1.766-2.092,2.74-1.594,4.362a3.128,3.128,0,0,0,2.005,2.035c.4.133.719.24,4.8.24,1.594,0,3.763-.016,6.734-.054a3,3,0,0,0-.036-6Z" transform="translate(-262.227 -154.181)" fill="#e2f1fe"/>
      </g>
    </g>
  </g>
</svg>
