<svg id="Group_55459" data-name="Group 55459" xmlns="http://www.w3.org/2000/svg" width="81.434" height="81.434" viewBox="0 0 81.434 81.434">
  <g id="Group_55458" data-name="Group 55458">
    <g id="Group_55457" data-name="Group 55457">
      <path id="Path_1082" data-name="Path 1082" d="M40.717,0A40.717,40.717,0,1,0,81.434,40.717,40.763,40.763,0,0,0,40.717,0Zm0,78.041A37.324,37.324,0,1,1,78.041,40.717,37.366,37.366,0,0,1,40.717,78.041Z" fill="#fff"/>
      <path id="Path_1083" data-name="Path 1083" d="M218.366,164.87,194.614,149.6A1.7,1.7,0,0,0,192,151.028v30.538a1.7,1.7,0,0,0,2.615,1.427l23.752-15.269a1.7,1.7,0,0,0,0-2.853Zm-22.973,13.587V154.136L214.31,166.3Z" transform="translate(-161.462 -125.58)" fill="#fff"/>
    </g>
  </g>
</svg>
