<svg xmlns="http://www.w3.org/2000/svg" width="157.733" height="148.5" viewBox="0 0 157.733 148.5">
  <g id="Group_55600" data-name="Group 55600" transform="translate(-4207.133 -3078.5)">
    <path id="Path_1292" data-name="Path 1292" d="M149.31,63.785a50.116,50.116,0,0,1-10.723,31.072,50.688,50.688,0,0,1-3.57,4.077,5.881,5.881,0,0,0-3.494,1.7l-5.859,5.859a50.323,50.323,0,0,1-53.444.006l-.013-.006-5.859-5.859a5.881,5.881,0,0,0-3.494-1.7l-.006-.006A50.374,50.374,0,1,1,149.31,63.785Z" transform="translate(4187.065 3066.675)" fill="#fc5d3d"/>
    <path id="Path_1295" data-name="Path 1295" d="M209.9,116.2l-.228,29.208a7.146,7.146,0,0,1-2.1,5.06l-35,35.01v8.485H140.619V171.352h.013a24.377,24.377,0,0,1,7.121-18.06l11.592-11.579,5.859-5.859a5.881,5.881,0,0,1,3.494-1.7,5.945,5.945,0,0,1,5,1.795,6.013,6.013,0,0,1-.184,8.383l-8.256,8.25a6.538,6.538,0,0,0,.082,9.315,6.759,6.759,0,0,0,9.309-.228l20.343-20.349a5.577,5.577,0,0,0,1.642-3.951l.228-21.174a6.519,6.519,0,1,1,13.038,0Z" transform="translate(4153.383 3031.456)" fill="#ffb69f"/>
    <path id="Path_1296" data-name="Path 1296" d="M75.408,171.352v22.607H43.461v-8.485l-35-35.01a7.146,7.146,0,0,1-2.1-5.06L6.13,116.2a6.519,6.519,0,1,1,13.038,0l.228,21.174a5.577,5.577,0,0,0,1.642,3.951l20.343,20.349a6.759,6.759,0,0,0,9.309.228,6.538,6.538,0,0,0,.082-9.315l-8.256-8.25a6.013,6.013,0,0,1-.184-8.383,5.945,5.945,0,0,1,5-1.795,5.881,5.881,0,0,1,3.494,1.7l5.859,5.859.013.006,11.579,11.573a24.377,24.377,0,0,1,7.121,18.06Z" transform="translate(4202.589 3031.456)" fill="#ffb69f"/>
    <g id="Group_55593" data-name="Group 55593" transform="translate(4330.575 3080.349)">
      <path id="Path_1297" data-name="Path 1297" d="M209.894,20.746c-2.22-.734-4.513-1.375-5.8-6.92-1.186,5.108-3.085,6.023-5.8,6.92,4.429,1.464,5.1,3.887,5.8,6.92C205.306,22.437,207.314,21.6,209.894,20.746Z" transform="translate(-198.293 -13.826)" fill="#f0c020"/>
    </g>
    <g id="Group_55594" data-name="Group 55594" transform="translate(4214.311 3115.051)">
      <path id="Path_1298" data-name="Path 1298" d="M26.55,75.47c-2.22-.734-4.513-1.375-5.8-6.92-1.186,5.108-3.085,6.023-5.8,6.92,4.429,1.464,5.1,3.887,5.8,6.92C21.963,77.161,23.97,76.323,26.55,75.47Z" transform="translate(-14.949 -68.55)" fill="#f0c020"/>
    </g>
    <g id="Group_55595" data-name="Group 55595" transform="translate(4345.298 3115.051)">
      <path id="Path_1299" data-name="Path 1299" d="M233.112,75.47c-2.22-.734-4.513-1.375-5.8-6.92-1.186,5.108-3.085,6.023-5.8,6.92,4.429,1.464,5.1,3.887,5.8,6.92C228.525,77.161,230.532,76.323,233.112,75.47Z" transform="translate(-221.511 -68.55)" fill="#f0c020"/>
    </g>
    <path id="Path_1301" data-name="Path 1301" d="M181.228,194.742a1.585,1.585,0,0,1-1.585-1.585V186a1.585,1.585,0,0,1,.464-1.121l7.492-7.492a1.585,1.585,0,0,1,2.242,2.242l-7.028,7.028v6.5A1.585,1.585,0,0,1,181.228,194.742Zm10.856-19.6a1.584,1.584,0,0,1,0-2.242l24.669-24.669.224-29.2a1.585,1.585,0,1,1,3.171.025l-.23,29.164a3.167,3.167,0,0,1-.923,2.247l-24.671,24.671A1.585,1.585,0,0,1,192.084,175.145Z" transform="translate(4139.105 3028.604)" fill="#fbe0e2"/>
    <path id="Path_1302" data-name="Path 1302" d="M92.376,208.371a1.586,1.586,0,0,1-1.585-1.578s-.013-2.606-.024-5.9a1.585,1.585,0,0,1,1.58-1.59h.005a1.586,1.586,0,0,1,1.585,1.58c.011,3.3.024,5.9.024,5.9a1.585,1.585,0,0,1-1.578,1.593Zm-.039-12.251a1.586,1.586,0,0,1-1.585-1.583c-.005-6.6.037-7.559.037-7.523a17.292,17.292,0,0,0-5.024-12.147L68.312,157.423a1.585,1.585,0,0,1,2.241-2.242l17.452,17.442a20.488,20.488,0,0,1,5.953,14.39s-.043.84-.037,7.519a1.585,1.585,0,0,1-1.583,1.587Z" transform="translate(4180.008 3014.975)" fill="#fbe0e2"/>
    <path id="Path_1308" data-name="Path 1308" d="M144.946,69.738A40.058,40.058,0,1,0,104.888,109.8,40.048,40.048,0,0,0,144.946,69.738ZM68,69.738a36.887,36.887,0,1,1,36.887,36.887A36.871,36.871,0,0,1,68,69.738Z" transform="translate(4181.112 3060.722)" fill="none"/>
    <path id="Path_1310" data-name="Path 1310" d="M145.5,184.366a1.586,1.586,0,0,0,1.788-2.619,1.624,1.624,0,0,0-2.207.412,1.588,1.588,0,0,0,.419,2.207Z" transform="translate(4151.851 3005.182)" fill="none"/>
    <path id="Path_1311" data-name="Path 1311" d="M168.958,71.951a8.13,8.13,0,0,0-8.11,8.091l-.228,21.174v.019a3.962,3.962,0,0,1-1.179,2.828L139.1,124.413a5.162,5.162,0,0,1-7.083.209,4.95,4.95,0,0,1-.063-7.058l8.256-8.244a7.492,7.492,0,0,0-2.713-12.478,51.957,51.957,0,1,0-90.96-39.6,1.578,1.578,0,0,0,1.4,1.75,1.6,1.6,0,0,0,1.75-1.408,48.79,48.79,0,1,1,83.788,38.965,7.489,7.489,0,0,0-3.818,2.057l-5.727,5.72a48.631,48.631,0,0,1-29.157,7.216,1.606,1.606,0,0,0-1.693,1.478A1.584,1.584,0,0,0,94.55,114.7a51.864,51.864,0,0,0,22.325-3.336l-3.4,3.393a1.6,1.6,0,0,0,0,2.245,1.62,1.62,0,0,0,2.245,0V117L131.9,100.842a4.353,4.353,0,0,1,6.227.07,4.435,4.435,0,0,1-.165,6.164l-8.256,8.25a8.133,8.133,0,0,0,.1,11.579,8.349,8.349,0,0,0,11.535-.247l20.343-20.349a7.137,7.137,0,0,0,2.105-5.054l.228-21.174v-.019a4.934,4.934,0,1,1,9.867,0l-.228,29.2a5.549,5.549,0,0,1-1.636,3.951l-35,35.01a1.616,1.616,0,0,0-.463,1.122v8.485a1.585,1.585,0,1,0,3.171,0V150l34.541-34.547a8.682,8.682,0,0,0,2.562-6.183l.228-29.2a8.134,8.134,0,0,0-8.1-8.123Z" transform="translate(4187.811 3067.59)" fill="none"/>
    <path id="Path_1312" data-name="Path 1312" d="M138.12,223.482a1.585,1.585,0,0,0,3.171,0V200.045a22.677,22.677,0,0,1,1.294-7.571,1.582,1.582,0,0,0-.97-2.023,1.605,1.605,0,0,0-2.017.97,25.793,25.793,0,0,0-1.478,8.624Z" transform="translate(4154.297 3001.932)" fill="none"/>
    <path id="Path_1313" data-name="Path 1313" d="M3.63,115.28,3.858,144.5a8.792,8.792,0,0,0,2.562,6.17l34.541,34.541v7.831a1.585,1.585,0,1,0,3.171,0v-8.485a1.578,1.578,0,0,0-.463-1.122l-35-35.01a5.542,5.542,0,0,1-1.636-3.938L6.8,115.268a4.934,4.934,0,1,1,9.867.013l.228,21.193A7.148,7.148,0,0,0,19,141.527l4.027,4.027a1.62,1.62,0,0,0,2.245,0,1.588,1.588,0,0,0,0-2.238l-4.027-4.033a3.973,3.973,0,0,1-1.179-2.828l-.228-21.193a8.1,8.1,0,0,0-16.208.019Z" transform="translate(4203.503 3032.371)" fill="none"/>
    <path id="Path_1314" data-name="Path 1314" d="M41.031,170.981a1.583,1.583,0,1,0,2.238,0A1.618,1.618,0,0,0,41.031,170.981Z" transform="translate(4191.261 3004.857)" fill="#f0c020"/>
    <path id="Path_1315" data-name="Path 1315" d="M47.655,91.72H47.63a1.6,1.6,0,1,0,.025,0Z" transform="translate(4195.703 2988.629)" fill="#f0c020"/>
    <path id="Path_1316" data-name="Path 1316" d="M48.224,101.7a1.575,1.575,0,0,0-1.344,1.788A51.769,51.769,0,0,0,59,130.057a7.5,7.5,0,0,0-2.7,12.475l8.256,8.25a4.943,4.943,0,0,1-.063,7.051,5.162,5.162,0,0,1-7.083-.209l-7.35-7.35a1.625,1.625,0,0,0-2.238,0,1.583,1.583,0,0,0-.006,2.245l7.35,7.35a8.351,8.351,0,0,0,11.535.247,8.123,8.123,0,0,0,.1-11.573l-8.256-8.256a4.425,4.425,0,0,1-.159-6.164,4.345,4.345,0,0,1,6.221-.076l17.451,17.445A22.914,22.914,0,0,1,88.726,167.6v23.437a1.585,1.585,0,1,0,3.171,0V167.6a25.965,25.965,0,0,0-7.6-18.352l-4.684-4.681c.744.287,1.494.564,2.255.819a1.585,1.585,0,1,0,1.008-3.006,48.678,48.678,0,0,1-10.324-4.858l-5.707-5.713a7.5,7.5,0,0,0-3.838-2.055,48.616,48.616,0,0,1-12.992-26.709,1.6,1.6,0,0,0-1.795-1.344Z" transform="translate(4187.686 3034.378)" fill="none"/>
    <path id="Path_1317" data-name="Path 1317" d="M111.918,168.314a1.609,1.609,0,0,0-1.864,1.249,1.587,1.587,0,1,0,1.864-1.249Z" transform="translate(4169.556 3020.84)" fill="#f0c020"/>
    <path id="Path_1318" data-name="Path 1318" d="M201.636,12.555c-1.057,4.552-2.528,5.038-4.753,5.773a1.587,1.587,0,0,0,0,3.011c3.7,1.222,4.117,3.032,4.753,5.773a1.586,1.586,0,0,0,3.089,0c1.056-4.552,2.527-5.038,4.753-5.773a1.587,1.587,0,0,0,0-3.011c-2.082-.682-3.677-1.138-4.754-5.773a1.587,1.587,0,0,0-3.088,0Zm1.55,4.908a7.652,7.652,0,0,0,2.065,2.384,7.417,7.417,0,0,0-2.043,2.3,7.776,7.776,0,0,0-2.164-2.278,7.424,7.424,0,0,0,2.142-2.405Z" transform="translate(4133.194 3067.435)" fill="#f0c020"/>
    <path id="Path_1319" data-name="Path 1319" d="M13.539,76.064c3.7,1.222,4.117,3.032,4.753,5.773a1.586,1.586,0,0,0,3.089,0c1.056-4.552,2.527-5.038,4.753-5.773a1.587,1.587,0,0,0,0-3.011c-2.082-.682-3.677-1.138-4.754-5.773a1.587,1.587,0,0,0-3.088,0c-1.057,4.552-2.528,5.038-4.753,5.773A1.587,1.587,0,0,0,13.539,76.064Zm6.3-3.876a7.652,7.652,0,0,0,2.065,2.384,7.417,7.417,0,0,0-2.043,2.3A7.776,7.776,0,0,0,17.7,74.593,7.417,7.417,0,0,0,19.842,72.187Z" transform="translate(4200.275 3047.413)" fill="#f0c020"/>
    <path id="Path_1320" data-name="Path 1320" d="M232.7,73.053c-2.082-.682-3.677-1.138-4.754-5.773a1.587,1.587,0,0,0-3.088,0c-1.057,4.552-2.528,5.038-4.753,5.773a1.587,1.587,0,0,0,0,3.011c3.7,1.222,4.117,3.032,4.753,5.773a1.586,1.586,0,0,0,3.089,0C229,77.285,230.47,76.8,232.7,76.064a1.587,1.587,0,0,0,0-3.011Zm-6.27,3.819a7.776,7.776,0,0,0-2.164-2.278,7.415,7.415,0,0,0,2.141-2.405,7.653,7.653,0,0,0,2.065,2.384A7.416,7.416,0,0,0,226.426,76.872Z" transform="translate(4124.7 3047.413)" fill="#f0c020"/>
    <g id="Group_55599" data-name="Group 55599" transform="translate(506.625 171.158)">
      <path id="Path_1324" data-name="Path 1324" d="M224.323,105.5a50.862,50.862,0,1,1-50.862,50.862A50.864,50.864,0,0,1,224.323,105.5Z" transform="translate(3555.539 2802.5)" fill="#ffd400"/>
      <path id="Path_1332" data-name="Path 1332" d="M239.026,155.687v-9.95q-5.665.486-5.658,4.692a3.915,3.915,0,0,0,1.417,3.192A12.7,12.7,0,0,0,239.026,155.687Zm3.8,15.042v9.7q6.227-.248,6.224-4.285a3.753,3.753,0,0,0-1.7-3.274A18.5,18.5,0,0,0,242.828,170.729Zm0-24.91v11l2.588.648a69.352,69.352,0,0,1,7.439,2.467,19.811,19.811,0,0,1,5.62,3.312,13.37,13.37,0,0,1,3.554,4.813,16.641,16.641,0,0,1,1.259,6.79,17.348,17.348,0,0,1-1.622,7.845,14.818,14.818,0,0,1-4.323,5.3,19.172,19.172,0,0,1-6.231,3.115,30.222,30.222,0,0,1-7.4,1.214V201.7h-5.576v-9.46a49.147,49.147,0,0,1-11.037-2.263,39.585,39.585,0,0,1-9.829-4.692l5.824-11.558a9,9,0,0,0,1.742,1.329,27.65,27.65,0,0,0,3.6,1.945,50.527,50.527,0,0,0,4.927,1.939,31.636,31.636,0,0,0,5.665,1.335V169.515l-3.885-1.132a48.128,48.128,0,0,1-6.873-2.626,18.248,18.248,0,0,1-4.812-3.274,11.892,11.892,0,0,1-2.829-4.285,15.748,15.748,0,0,1-.928-5.665,18.18,18.18,0,0,1,1.456-7.477,17.292,17.292,0,0,1,3.923-5.62,18,18,0,0,1,5.817-3.681,27.25,27.25,0,0,1,7.241-1.742V125.85h5.576v8.163a34.743,34.743,0,0,1,9.867,2.346,65.149,65.149,0,0,1,8,3.8l-5.817,10.993a6.361,6.361,0,0,0-1.418-1.049,29.28,29.28,0,0,0-2.988-1.577,41.467,41.467,0,0,0-4.043-1.615A24.2,24.2,0,0,0,242.828,145.82Z" transform="translate(3539.583 2795.088)" fill="#fff"/>
    </g>
  </g>
</svg>
