<svg xmlns="http://www.w3.org/2000/svg" width="150.6" height="148" viewBox="0 0 150.6 148">
  <g id="svgexport-6_9_" data-name="svgexport-6 (9)" transform="translate(-24 -24.148)">
    <g id="FLAT" transform="translate(24 24.148)">
      <circle id="Ellipse_585" data-name="Ellipse 585" cx="28.078" cy="28.078" r="28.078" transform="translate(91.891 15.268)" fill="#5791d6"/>
      <g id="Group_55620" data-name="Group 55620" transform="translate(91.891 15.268)">
        <path id="Path_1365" data-name="Path 1365" d="M464,157.105h7.541c.076-.841.117-1.692.117-2.553s-.041-1.712-.117-2.553H464Z" transform="translate(-415.502 -126.475)" fill="#4484d1"/>
        <path id="Path_1366" data-name="Path 1366" d="M446.8,92.377l-4.456,4.456,3.61,3.61,4.456-4.456a28.242,28.242,0,0,0-3.61-3.61Z" transform="translate(-400.755 -85.875)" fill="#4484d1"/>
        <path id="Path_1367" data-name="Path 1367" d="M445.953,202.343l-3.61,3.61,4.456,4.456a28.243,28.243,0,0,0,3.61-3.61Z" transform="translate(-400.755 -160.755)" fill="#4484d1"/>
        <path id="Path_1368" data-name="Path 1368" d="M397.105,72.117c-.841-.076-1.692-.117-2.553-.117s-1.712.041-2.553.117v7.541h5.105Z" transform="translate(-366.475 -72)" fill="#4484d1"/>
        <path id="Path_1369" data-name="Path 1369" d="M332.377,95.986l4.456,4.456,3.61-3.61-4.456-4.456a28.245,28.245,0,0,0-3.61,3.61Z" transform="translate(-325.875 -85.875)" fill="#4484d1"/>
        <path id="Path_1370" data-name="Path 1370" d="M392,231.541c.841.076,1.692.117,2.553.117s1.712-.041,2.553-.117V224H392Z" transform="translate(-366.475 -175.502)" fill="#4484d1"/>
        <path id="Path_1371" data-name="Path 1371" d="M332.377,206.8a28.249,28.249,0,0,0,3.61,3.61l4.456-4.456-3.61-3.61Z" transform="translate(-325.875 -160.755)" fill="#4484d1"/>
        <path id="Path_1372" data-name="Path 1372" d="M312.117,157.105h7.541V152h-7.541c-.076.841-.117,1.692-.117,2.553S312.041,156.264,312.117,157.105Z" transform="translate(-312 -126.475)" fill="#4484d1"/>
      </g>
      <path id="Path_1373" data-name="Path 1373" d="M365.953,139.331l-3.61-3.61,9.462-9.462V112h5.105v15.315a2.552,2.552,0,0,1-.748,1.8Z" transform="translate(-254.389 -83.969)" fill="#abcdef"/>
      <path id="Path_1374" data-name="Path 1374" d="M157.544,103l-3.094-7.425,1.292-2.908A38.418,38.418,0,0,0,151.9,54.731h0l.273-1.91a27.224,27.224,0,0,0-10.616-25.629h0a15.219,15.219,0,0,0-15.938-1.437l-6.9,3.451-7.827-1.565A17.074,17.074,0,0,0,90.637,41.968h0A26.573,26.573,0,0,0,78.184,72.032l2.243,8.224L76.309,90.964a48.253,48.253,0,0,0,4.118,42.9h0l63.813,2.553h0A25.736,25.736,0,0,0,157.544,103Z" transform="translate(-57.429 -24.148)" fill="#f4c36e"/>
      <path id="Path_1375" data-name="Path 1375" d="M181.481,276.183A25.525,25.525,0,0,0,164.2,254.95l-15.923-5.308a10.21,10.21,0,0,1-6.981-9.686V232H115.773v7.956a10.21,10.21,0,0,1-6.981,9.686l-11.071,3.69L87.552,303.471h97.139Z" transform="translate(-67.275 -165.681)" fill="#ffc7d3"/>
      <path id="Path_1376" data-name="Path 1376" d="M181.481,312.139A25.525,25.525,0,0,0,164.2,290.906L148.28,285.6a10.2,10.2,0,0,1-1.776-.795l-3.087,1.929a28.078,28.078,0,0,1-29.763,0l-3.087-1.929a10.2,10.2,0,0,1-1.776.795l-11.071,3.69L87.552,339.427h97.139Z" transform="translate(-67.275 -201.637)" fill="#31c292"/>
      <path id="Path_1377" data-name="Path 1377" d="M424,472h22.973v5.105H424Z" transform="translate(-296.373 -329.105)" fill="#bebebe"/>
      <path id="Path_1378" data-name="Path 1378" d="M24,456v5.105a5.105,5.105,0,0,0,5.105,5.105H75.051V456Z" transform="translate(-24 -318.21)" fill="#bebebe"/>
      <path id="Path_1379" data-name="Path 1379" d="M154.21,95.658h7.119a15.315,15.315,0,0,0,12.743-6.82l.559-.838,2.822,5.644a15.315,15.315,0,0,0,6.849,6.849,10.21,10.21,0,0,1,5.644,9.132v6.452a22.973,22.973,0,0,1-22.973,22.973h0A22.973,22.973,0,0,1,144,116.078v-10.21a10.21,10.21,0,0,1,10.21-10.21Z" transform="translate(-105.712 -67.627)" fill="#fcd6e0"/>
      <path id="Path_1380" data-name="Path 1380" d="M172.553,142.83l-.818-.818a3.514,3.514,0,0,0-4.964,0l-.818.818-3.61-3.61.818-.818a8.624,8.624,0,0,1,12.183,0l.818.818Z" transform="translate(-118.202 -100.232)" fill="#eab0c3"/>
      <path id="Path_1381" data-name="Path 1381" d="M206.515,170.77l-5.105-2.553a2.552,2.552,0,0,1-1.28-3.09l2.553-7.658,4.843,1.614-1.852,5.557L208.8,166.2Z" transform="translate(-143.843 -114.931)" fill="#eab0c3"/>
      <path id="Path_1382" data-name="Path 1382" d="M204.785,210.341a21.8,21.8,0,0,0-13.7,0L189.47,205.5a26.933,26.933,0,0,1,16.93,0Z" transform="translate(-136.674 -146.706)" fill="#eab0c3"/>
      <path id="Path_1383" data-name="Path 1383" d="M228.553,142.83l-.818-.818a3.514,3.514,0,0,0-4.964,0l-.818.818-3.61-3.61.818-.818a8.624,8.624,0,0,1,12.183,0l.818.818Z" transform="translate(-156.335 -100.232)" fill="#eab0c3"/>
      <path id="Path_1384" data-name="Path 1384" d="M54.376,222.247,75.7,179.589a5.105,5.105,0,0,0-.412-5.25l-7.225-10.115a10.21,10.21,0,0,1-.617-10.893L77.079,136l1.241,1.241a10.21,10.21,0,0,1,2.792,9.222l-1.481,7.4,11.5,13.42a10.21,10.21,0,0,1,1.9,9.985l-18.5,53.458A10.955,10.955,0,0,1,64.174,238.1h0a10.955,10.955,0,0,1-9.8-15.854Z" transform="translate(-43.896 -100.311)" fill="#fcd6e0"/>
      <path id="Path_1385" data-name="Path 1385" d="M250.8,357.261H168l14.348-57.394A5.105,5.105,0,0,1,187.3,296h76.262a5.105,5.105,0,0,1,4.953,6.343l-12.763,51.051a5.1,5.1,0,0,1-4.953,3.867Z" transform="translate(-122.054 -209.261)" fill="#dfdfdf"/>
      <circle id="Ellipse_586" data-name="Ellipse 586" cx="10.21" cy="10.21" r="10.21" transform="translate(86.786 107.159)" fill="#f4f4f4"/>
    </g>
  </g>
</svg>
