<svg xmlns="http://www.w3.org/2000/svg" width="148" height="148" viewBox="0 0 148 148">
  <g id="Group_55663" data-name="Group 55663" transform="translate(-678 -4033)">
    <rect id="Rectangle_13144" data-name="Rectangle 13144" width="148" height="148" transform="translate(678 4033)" fill="none"/>
    <g id="svgexport-6_11_" data-name="svgexport-6 (11)" transform="translate(610.754 4032.998)">
      <g id="Group_55630" data-name="Group 55630" transform="translate(94.246 0.002)">
        <g id="Group_55627" data-name="Group 55627" transform="translate(0 0)">
          <path id="Path_1387" data-name="Path 1387" d="M184.974,382.295H97.033l-2.787-2.787V360.181a35.966,35.966,0,0,1,11.828-26.7h69.859a35.966,35.966,0,0,1,11.828,26.7v19.327Z" transform="translate(-94.246 -237.081)" fill="#86dcff"/>
          <path id="Path_1388" data-name="Path 1388" d="M95.794,498.293h14.747l2.168-2.6,2.168,2.6h52.251l2.168-2.6,2.168,2.6h14.747a1.548,1.548,0,0,0,1.548-1.548V492.72H94.246v4.025A1.548,1.548,0,0,0,95.794,498.293Z" transform="translate(-94.246 -350.293)" fill="#56caed"/>
          <path id="Path_1389" data-name="Path 1389" d="M199.316,331.595l23.31-25.649-.154-2.618a35.968,35.968,0,0,0-12.458-2.212h-21.4a35.974,35.974,0,0,0-12.349,2.172l.121,3.081Z" transform="translate(-152.558 -214.074)" fill="#e4eef9"/>
          <path id="Path_1390" data-name="Path 1390" d="M166.949,308.773a35.959,35.959,0,0,0-3.637,1.571l.959,4.121L190.1,342.612l26.1-28.436.7-3.832a35.884,35.884,0,0,0-3.637-1.571l-22.01,24.219a1.548,1.548,0,0,1-2.291,0Z" transform="translate(-143.348 -219.519)" fill="#d5e0f2"/>
          <path id="Path_1391" data-name="Path 1391" d="M238.458,350.521l6.558-7.217.574-3.418-1.708-9.362-5.425-2.787-5.425,2.787-1.708,9.362.574,3.418Z" transform="translate(-191.701 -233.001)" fill="#ff5876"/>
          <path id="Path_1392" data-name="Path 1392" d="M242.263,311.6H231.414l-2.366-10.482H244.63Z" transform="translate(-190.082 -214.075)" fill="#e6485d"/>
          <path id="Path_1393" data-name="Path 1393" d="M244.354,374.407l-.847-4.641-5.987,6.588a1.548,1.548,0,0,1-2.291,0l-5.987-6.588-.847,4.641,7.98,14.354Z" transform="translate(-189.617 -262.881)" fill="#e6485d"/>
          <path id="Path_1394" data-name="Path 1394" d="M150.449,314.21a36.116,36.116,0,0,0-5.23,3.194l.356,3.178,28.23,31.063a4.644,4.644,0,0,0,6.874,0l28.536-31.4.05-2.842a36.126,36.126,0,0,0-5.23-3.194l-25.723,28.3a1.445,1.445,0,0,1-2.139,0Z" transform="translate(-130.485 -223.384)" fill="#ffcf4d"/>
          <path id="Path_1395" data-name="Path 1395" d="M173.53,356.716a4.644,4.644,0,0,1-6.874,0l-28.585-31.453a36.1,36.1,0,0,0-2.907,2.375l31.492,34.652a4.644,4.644,0,0,0,6.874,0l31.492-34.652a36.158,36.158,0,0,0-2.907-2.375Z" transform="translate(-123.336 -231.241)" fill="#ffb629"/>
          <path id="Path_1396" data-name="Path 1396" d="M131.981,176.309l-2.787-7.5a9.866,9.866,0,0,0-1.009-.052,9.763,9.763,0,0,0-9.32,6.857c-.285.917-.014,9.874,9.32,9.874l1.084-2.848Z" transform="translate(-111.704 -119.975)" fill="#ffc4ad"/>
          <path id="Path_1397" data-name="Path 1397" d="M127.265,199.846a9.761,9.761,0,0,1-9.352-6.972,9.764,9.764,0,0,0,11.342,12.342l2.226-2.583-3.129-2.848A9.767,9.767,0,0,1,127.265,199.846Z" transform="translate(-110.782 -137.122)" fill="#ffb69f"/>
          <path id="Path_1398" data-name="Path 1398" d="M347.6,176.309l2.787-7.5a9.866,9.866,0,0,1,1.009-.052,9.763,9.763,0,0,1,9.32,6.857c.285.917.014,9.874-9.32,9.874l-1.084-2.848Z" transform="translate(-274.367 -119.975)" fill="#ffc4ad"/>
          <path id="Path_1399" data-name="Path 1399" d="M350.368,199.846a9.761,9.761,0,0,0,9.352-6.972,9.764,9.764,0,0,1-11.342,12.342l-2.226-2.583,3.129-2.848A9.766,9.766,0,0,0,350.368,199.846Z" transform="translate(-273.336 -137.122)" fill="#ffb69f"/>
          <path id="Path_1400" data-name="Path 1400" d="M154.756,64.99v38.989a29.266,29.266,0,1,0,58.532,0V64.99Z" transform="translate(-137.265 -46.204)" fill="#ffe0cc"/>
          <path id="Path_1401" data-name="Path 1401" d="M184.022,219.5a29.266,29.266,0,0,1-29.266-29.266V195.8a29.266,29.266,0,1,0,58.532,0v-5.573A29.266,29.266,0,0,1,184.022,219.5Z" transform="translate(-137.265 -135.243)" fill="#ffceb3"/>
          <path id="Path_1402" data-name="Path 1402" d="M181.172,39.5a132.261,132.261,0,0,1-9.832-9.424c-8.356,6.717-14.636,7.306-14.636,7.306l-6.142-5.993c-10.443,7.867-22.5,9.42-25.79,9.338a5.5,5.5,0,0,1-1.474-.24c-7.661-2.345-10.555-6.99-10.555-6.99s-.9-2.035.518-2.306c7.4-1.423,10-6.492,10-6.492-8.234.249-10.894-5.855-11.733-9.211a1.551,1.551,0,0,1,1.631-1.925c15.377,1.21,19.109-8.266,33.569-12.537,15.069-4.45,25.737,7.043,25.737,7.043s15.272-1.475,16.582,14.094C190.3,37.043,181.172,39.5,181.172,39.5Z" transform="translate(-106.497 -0.002)" fill="#2d4456"/>
          <g id="Group_55626" data-name="Group 55626" transform="translate(3.675 22.497)">
            <path id="Path_1403" data-name="Path 1403" d="M277.564,92.135c-3.692-2.611-7.079-7.443-8.838-10.21a1.55,1.55,0,0,0-2.541-.094c-6.327,8.171-19.5,4.89-19.5,4.89s3.235,3.961,3.228,8.614a1.548,1.548,0,0,0,1.89,1.523c3.718-.848,11.5-3.517,15.66-11.45,0,0,4.727,8.5,10.1,12.3a1.546,1.546,0,0,0,2.022-.2c2.011-2.147,6.472-8.27,5.61-19.673-.643,7.869-3.951,12.326-5.606,14.1a1.546,1.546,0,0,1-2.022.21Z" transform="translate(-206.296 -77.829)" fill="#253847"/>
            <path id="Path_1404" data-name="Path 1404" d="M147.676,97.867a1.541,1.541,0,0,0-2.591-1.341,34.421,34.421,0,0,1-23.527,9.729,5.5,5.5,0,0,1-1.474-.24c-3.719-1.138-7.317-3.935-10.037-6.513-.539.1-1.1.188-1.695.251a1.547,1.547,0,0,0-.992,2.576c2.678,2.95,7.588,7.687,12.725,9.26a5.5,5.5,0,0,0,1.474.24A34.533,34.533,0,0,0,147.349,99.7C147.493,99.008,147.6,98.4,147.676,97.867Z" transform="translate(-106.959 -90.811)" fill="#253847"/>
          </g>
          <path id="Path_1405" data-name="Path 1405" d="M154.956,432.648v15.823l-2.168,2.787-2.168-2.787V432.648a2.168,2.168,0,0,1,4.336,0Z" transform="translate(-134.324 -306.044)" fill="#4ea1f4"/>
          <path id="Path_1406" data-name="Path 1406" d="M150.62,492.72h4.336v5.573H150.62Z" transform="translate(-134.324 -350.293)" fill="#3292e0"/>
          <path id="Path_1407" data-name="Path 1407" d="M350.716,432.648v15.823l-2.168,2.787-2.168-2.787V432.648a2.168,2.168,0,0,1,4.336,0Z" transform="translate(-273.497 -306.044)" fill="#4ea1f4"/>
          <path id="Path_1408" data-name="Path 1408" d="M346.38,492.72h4.336v5.573H346.38Z" transform="translate(-273.497 -350.293)" fill="#3292e0"/>
        </g>
        <g id="Group_55629" data-name="Group 55629" transform="translate(30.254 49.245)">
          <path id="Path_1409" data-name="Path 1409" d="M228.832,238.267c8.255,0,10.751-5.8,10.86-6.065v0a2.322,2.322,0,1,0-4.286-1.791c-.117.249-1.625,3.213-6.575,3.213s-6.457-2.963-6.575-3.213a2.322,2.322,0,1,0-4.286,1.791v0C218.081,232.465,220.576,238.267,228.832,238.267Z" transform="translate(-212.328 -212.032)" fill="#ff5876"/>
          <g id="Group_55628" data-name="Group 55628">
            <path id="Path_1410" data-name="Path 1410" d="M201.23,170.362a2.322,2.322,0,0,0-2.322,2.322v6.561a2.322,2.322,0,0,0,4.644,0v-6.561A2.322,2.322,0,0,0,201.23,170.362Z" transform="translate(-198.908 -170.362)" fill="#2d4456"/>
            <path id="Path_1411" data-name="Path 1411" d="M299.348,181.568a2.322,2.322,0,0,0,2.322-2.322v-6.561a2.322,2.322,0,0,0-4.644,0v6.561A2.322,2.322,0,0,0,299.348,181.568Z" transform="translate(-268.664 -170.363)" fill="#2d4456"/>
          </g>
        </g>
      </g>
    </g>
  </g>
</svg>
