<svg xmlns="http://www.w3.org/2000/svg" width="157.733" height="148.5" viewBox="0 0 157.733 148.5">
  <g id="svgexport-6_5_" data-name="svgexport-6 (5)" transform="translate(-3.63 -10.91)">
    <path id="Path_1292" data-name="Path 1292" d="M149.31,63.785a50.116,50.116,0,0,1-10.723,31.072,50.688,50.688,0,0,1-3.57,4.077,5.881,5.881,0,0,0-3.494,1.7l-5.859,5.859a50.323,50.323,0,0,1-53.444.006l-.013-.006-5.859-5.859a5.881,5.881,0,0,0-3.494-1.7l-.006-.006A50.374,50.374,0,1,1,149.31,63.785Z" transform="translate(-16.439 -0.915)" fill="#fc5d3d"/>
    <path id="Path_1293" data-name="Path 1293" d="M176.341,141.617a50.691,50.691,0,0,1-3.57,4.077,5.881,5.881,0,0,0-3.494,1.7l-5.859,5.859a50.3,50.3,0,0,1-11.668,5.377l14.388-14.376A10.362,10.362,0,0,1,176.341,141.617Z" transform="translate(-54.193 -47.674)" fill="#b34f33"/>
    <path id="Path_1294" data-name="Path 1294" d="M90.061,158.63a50.392,50.392,0,0,1-11.655-5.371l-.013-.006-5.859-5.859a5.881,5.881,0,0,0-3.494-1.7l-.006-.006a50.065,50.065,0,0,1-3.564-4.071,10.355,10.355,0,0,1,10.2,2.638Z" transform="translate(-22.626 -47.673)" fill="#b34f33"/>
    <circle id="Ellipse_583" data-name="Ellipse 583" cx="38.473" cy="38.473" r="38.473" transform="translate(44.024 24.398)" fill="#f2e1d7"/>
    <circle id="Ellipse_584" data-name="Ellipse 584" cx="5.026" cy="5.026" r="5.026" transform="translate(77.47 57.844)" fill="#72c2e9"/>
    <path id="Path_1295" data-name="Path 1295" d="M209.9,116.2l-.228,29.208a7.146,7.146,0,0,1-2.1,5.06l-35,35.01v8.485H140.619V171.352h.013a24.377,24.377,0,0,1,7.121-18.06l11.592-11.579,5.859-5.859a5.881,5.881,0,0,1,3.494-1.7,5.945,5.945,0,0,1,5,1.795,6.013,6.013,0,0,1-.184,8.383l-8.256,8.25a6.538,6.538,0,0,0,.082,9.315,6.759,6.759,0,0,0,9.309-.228l20.343-20.349a5.577,5.577,0,0,0,1.642-3.951l.228-21.174a6.519,6.519,0,1,1,13.038,0Z" transform="translate(-50.12 -36.134)" fill="#ffb69f"/>
    <path id="Path_1296" data-name="Path 1296" d="M75.408,171.352v22.607H43.461v-8.485l-35-35.01a7.146,7.146,0,0,1-2.1-5.06L6.13,116.2a6.519,6.519,0,1,1,13.038,0l.228,21.174a5.577,5.577,0,0,0,1.642,3.951l20.343,20.349a6.759,6.759,0,0,0,9.309.228,6.538,6.538,0,0,0,.082-9.315l-8.256-8.25a6.013,6.013,0,0,1-.184-8.383,5.945,5.945,0,0,1,5-1.795,5.881,5.881,0,0,1,3.494,1.7l5.859,5.859.013.006,11.579,11.573a24.377,24.377,0,0,1,7.121,18.06Z" transform="translate(-0.915 -36.134)" fill="#ffb69f"/>
    <g id="Group_55593" data-name="Group 55593" transform="translate(127.071 12.759)">
      <path id="Path_1297" data-name="Path 1297" d="M209.894,20.746c-2.22-.734-4.513-1.375-5.8-6.92-1.186,5.108-3.085,6.023-5.8,6.92,4.429,1.464,5.1,3.887,5.8,6.92C205.306,22.437,207.314,21.6,209.894,20.746Z" transform="translate(-198.293 -13.826)" fill="#f0c020"/>
    </g>
    <g id="Group_55594" data-name="Group 55594" transform="translate(10.808 47.461)">
      <path id="Path_1298" data-name="Path 1298" d="M26.55,75.47c-2.22-.734-4.513-1.375-5.8-6.92-1.186,5.108-3.085,6.023-5.8,6.92,4.429,1.464,5.1,3.887,5.8,6.92C21.963,77.161,23.97,76.323,26.55,75.47Z" transform="translate(-14.949 -68.55)" fill="#f0c020"/>
    </g>
    <g id="Group_55595" data-name="Group 55595" transform="translate(141.794 47.461)">
      <path id="Path_1299" data-name="Path 1299" d="M233.112,75.47c-2.22-.734-4.513-1.375-5.8-6.92-1.186,5.108-3.085,6.023-5.8,6.92,4.429,1.464,5.1,3.887,5.8,6.92C228.525,77.161,230.532,76.323,233.112,75.47Z" transform="translate(-221.511 -68.55)" fill="#f0c020"/>
    </g>
    <path id="Path_1300" data-name="Path 1300" d="M114.115,112.326a33.394,33.394,0,0,1-17.053-4.666,1.585,1.585,0,1,1,1.619-2.726,30.211,30.211,0,0,0,36.793-47.329,1.585,1.585,0,0,1,2.242-2.242,33.376,33.376,0,0,1-23.6,56.962Zm-22.4-8.617q-.612-.555-1.2-1.145a1.585,1.585,0,0,1,2.242-2.242q.536.535,1.089,1.037a1.585,1.585,0,1,1-2.129,2.349Z" transform="translate(-31.618 -16.094)" fill="#fff"/>
    <path id="Path_1301" data-name="Path 1301" d="M181.228,194.742a1.585,1.585,0,0,1-1.585-1.585V186a1.585,1.585,0,0,1,.464-1.121l7.492-7.492a1.585,1.585,0,0,1,2.242,2.242l-7.028,7.028v6.5A1.585,1.585,0,0,1,181.228,194.742Zm10.856-19.6a1.584,1.584,0,0,1,0-2.242l24.669-24.669.224-29.2a1.585,1.585,0,1,1,3.171.025l-.23,29.164a3.167,3.167,0,0,1-.923,2.247l-24.671,24.671A1.585,1.585,0,0,1,192.084,175.145Z" transform="translate(-64.398 -38.986)" fill="#fbe0e2"/>
    <path id="Path_1302" data-name="Path 1302" d="M92.376,208.371a1.586,1.586,0,0,1-1.585-1.578s-.013-2.606-.024-5.9a1.585,1.585,0,0,1,1.58-1.59h.005a1.586,1.586,0,0,1,1.585,1.58c.011,3.3.024,5.9.024,5.9a1.585,1.585,0,0,1-1.578,1.593Zm-.039-12.251a1.586,1.586,0,0,1-1.585-1.583c-.005-6.6.037-7.559.037-7.523a17.292,17.292,0,0,0-5.024-12.147L68.312,157.423a1.585,1.585,0,0,1,2.241-2.242l17.452,17.442a20.488,20.488,0,0,1,5.953,14.39s-.043.84-.037,7.519a1.585,1.585,0,0,1-1.583,1.587Z" transform="translate(-23.495 -52.615)" fill="#fbe0e2"/>
    <path id="Path_1303" data-name="Path 1303" d="M143.5,94.367a1.585,1.585,0,0,1-.306-2.221c.389-.514.772-1.043,1.138-1.574a1.585,1.585,0,0,1,2.61,1.8c-.393.569-.8,1.138-1.221,1.689a1.586,1.586,0,0,1-2.221.306Zm4.646-6.934a1.586,1.586,0,0,1-.716-2.125A43,43,0,0,0,78.5,35.819a1.585,1.585,0,1,1-2.242-2.242,46.171,46.171,0,0,1,74.013,53.14,1.585,1.585,0,0,1-2.124.716Z" transform="translate(-26.403 -3.347)" fill="#ffcbc3"/>
    <path id="Path_1304" data-name="Path 1304" d="M127.085,46.087a1.586,1.586,0,0,0,1.585-1.585V42.3a1.585,1.585,0,0,0-3.171,0V44.5A1.586,1.586,0,0,0,127.085,46.087Z" transform="translate(-44.589 -10.903)" fill="#fc5d3d"/>
    <path id="Path_1305" data-name="Path 1305" d="M128.671,140.3V138.1a1.585,1.585,0,1,0-3.171,0V140.3a1.585,1.585,0,1,0,3.171,0Z" transform="translate(-44.589 -45.954)" fill="#fc5d3d"/>
    <path id="Path_1306" data-name="Path 1306" d="M173.245,93.521h2.213a1.585,1.585,0,0,0,0-3.171h-2.213a1.585,1.585,0,0,0,0,3.171Z" transform="translate(-61.478 -29.065)" fill="#fc5d3d"/>
    <path id="Path_1307" data-name="Path 1307" d="M79.652,90.35H77.445a1.585,1.585,0,1,0,0,3.171h2.207a1.585,1.585,0,1,0,0-3.171Z" transform="translate(-26.427 -29.065)" fill="#fc5d3d"/>
    <path id="Path_1308" data-name="Path 1308" d="M144.946,69.738A40.058,40.058,0,1,0,104.888,109.8,40.048,40.048,0,0,0,144.946,69.738ZM68,69.738a36.887,36.887,0,1,1,36.887,36.887A36.871,36.871,0,0,1,68,69.738Z" transform="translate(-22.391 -6.867)" fill="none"/>
    <path id="Path_1309" data-name="Path 1309" d="M126.254,80.789a6.557,6.557,0,0,0-.97-3.429l14.783-14.783a1.585,1.585,0,0,0,0-2.245,1.625,1.625,0,0,0-2.238,0L123.036,75.126a6.545,6.545,0,0,0-6.822.022L107.867,66.8a1.612,1.612,0,0,0-2.238,0,1.567,1.567,0,0,0,0,2.238L113.98,77.4a6.607,6.607,0,1,0,12.275,3.394Zm-10.052,0a3.441,3.441,0,1,1,3.441,3.441A3.444,3.444,0,0,1,116.2,80.789Z" transform="translate(-37.147 -17.919)" fill="#fc5d3d"/>
    <path id="Path_1310" data-name="Path 1310" d="M145.5,184.366a1.586,1.586,0,0,0,1.788-2.619,1.624,1.624,0,0,0-2.207.412,1.588,1.588,0,0,0,.419,2.207Z" transform="translate(-51.653 -62.407)" fill="none"/>
    <path id="Path_1311" data-name="Path 1311" d="M168.958,71.951a8.13,8.13,0,0,0-8.11,8.091l-.228,21.174v.019a3.962,3.962,0,0,1-1.179,2.828L139.1,124.413a5.162,5.162,0,0,1-7.083.209,4.95,4.95,0,0,1-.063-7.058l8.256-8.244a7.492,7.492,0,0,0-2.713-12.478,51.957,51.957,0,1,0-90.96-39.6,1.578,1.578,0,0,0,1.4,1.75,1.6,1.6,0,0,0,1.75-1.408,48.79,48.79,0,1,1,83.788,38.965,7.489,7.489,0,0,0-3.818,2.057l-5.727,5.72a48.631,48.631,0,0,1-29.157,7.216,1.606,1.606,0,0,0-1.693,1.478A1.584,1.584,0,0,0,94.55,114.7a51.864,51.864,0,0,0,22.325-3.336l-3.4,3.393a1.6,1.6,0,0,0,0,2.245,1.62,1.62,0,0,0,2.245,0V117L131.9,100.842a4.353,4.353,0,0,1,6.227.07,4.435,4.435,0,0,1-.165,6.164l-8.256,8.25a8.133,8.133,0,0,0,.1,11.579,8.349,8.349,0,0,0,11.535-.247l20.343-20.349a7.137,7.137,0,0,0,2.105-5.054l.228-21.174v-.019a4.934,4.934,0,1,1,9.867,0l-.228,29.2a5.549,5.549,0,0,1-1.636,3.951l-35,35.01a1.616,1.616,0,0,0-.463,1.122v8.485a1.585,1.585,0,1,0,3.171,0V150l34.541-34.547a8.682,8.682,0,0,0,2.562-6.183l.228-29.2a8.134,8.134,0,0,0-8.1-8.123Z" transform="translate(-15.693)" fill="none"/>
    <path id="Path_1312" data-name="Path 1312" d="M138.12,223.482a1.585,1.585,0,0,0,3.171,0V200.045a22.677,22.677,0,0,1,1.294-7.571,1.582,1.582,0,0,0-.97-2.023,1.605,1.605,0,0,0-2.017.97,25.793,25.793,0,0,0-1.478,8.624Z" transform="translate(-49.206 -65.657)" fill="none"/>
    <path id="Path_1313" data-name="Path 1313" d="M3.63,115.28,3.858,144.5a8.792,8.792,0,0,0,2.562,6.17l34.541,34.541v7.831a1.585,1.585,0,1,0,3.171,0v-8.485a1.578,1.578,0,0,0-.463-1.122l-35-35.01a5.542,5.542,0,0,1-1.636-3.938L6.8,115.268a4.934,4.934,0,1,1,9.867.013l.228,21.193A7.148,7.148,0,0,0,19,141.527l4.027,4.027a1.62,1.62,0,0,0,2.245,0,1.588,1.588,0,0,0,0-2.238l-4.027-4.033a3.973,3.973,0,0,1-1.179-2.828l-.228-21.193a8.1,8.1,0,0,0-16.208.019Z" transform="translate(0 -35.219)" fill="none"/>
    <path id="Path_1314" data-name="Path 1314" d="M41.031,170.981a1.583,1.583,0,1,0,2.238,0A1.618,1.618,0,0,0,41.031,170.981Z" transform="translate(-12.242 -62.733)" fill="#f0c020"/>
    <path id="Path_1315" data-name="Path 1315" d="M47.655,91.72H47.63a1.6,1.6,0,1,0,.025,0Z" transform="translate(-15.528 -29.566)" fill="#f0c020"/>
    <path id="Path_1316" data-name="Path 1316" d="M48.224,101.7a1.575,1.575,0,0,0-1.344,1.788A51.769,51.769,0,0,0,59,130.057a7.5,7.5,0,0,0-2.7,12.475l8.256,8.25a4.943,4.943,0,0,1-.063,7.051,5.162,5.162,0,0,1-7.083-.209l-7.35-7.35a1.625,1.625,0,0,0-2.238,0,1.583,1.583,0,0,0-.006,2.245l7.35,7.35a8.351,8.351,0,0,0,11.535.247,8.123,8.123,0,0,0,.1-11.573l-8.256-8.256a4.425,4.425,0,0,1-.159-6.164,4.345,4.345,0,0,1,6.221-.076l17.451,17.445A22.914,22.914,0,0,1,88.726,167.6v23.437a1.585,1.585,0,1,0,3.171,0V167.6a25.965,25.965,0,0,0-7.6-18.352l-4.684-4.681c.744.287,1.494.564,2.255.819a1.585,1.585,0,1,0,1.008-3.006,48.678,48.678,0,0,1-10.324-4.858l-5.707-5.713a7.5,7.5,0,0,0-3.838-2.055,48.616,48.616,0,0,1-12.992-26.709,1.6,1.6,0,0,0-1.795-1.344Z" transform="translate(-15.818 -33.212)" fill="none"/>
    <path id="Path_1317" data-name="Path 1317" d="M111.918,168.314a1.609,1.609,0,0,0-1.864,1.249,1.587,1.587,0,1,0,1.864-1.249Z" transform="translate(-38.928 -57.579)" fill="#f0c020"/>
    <path id="Path_1318" data-name="Path 1318" d="M201.636,12.555c-1.057,4.552-2.528,5.038-4.753,5.773a1.587,1.587,0,0,0,0,3.011c3.7,1.222,4.117,3.032,4.753,5.773a1.586,1.586,0,0,0,3.089,0c1.056-4.552,2.527-5.038,4.753-5.773a1.587,1.587,0,0,0,0-3.011c-2.082-.682-3.677-1.138-4.754-5.773a1.587,1.587,0,0,0-3.088,0Zm1.55,4.908a7.652,7.652,0,0,0,2.065,2.384,7.417,7.417,0,0,0-2.043,2.3,7.776,7.776,0,0,0-2.164-2.278,7.424,7.424,0,0,0,2.142-2.405Z" transform="translate(-70.309 -0.155)" fill="#f0c020"/>
    <path id="Path_1319" data-name="Path 1319" d="M13.539,76.064c3.7,1.222,4.117,3.032,4.753,5.773a1.586,1.586,0,0,0,3.089,0c1.056-4.552,2.527-5.038,4.753-5.773a1.587,1.587,0,0,0,0-3.011c-2.082-.682-3.677-1.138-4.754-5.773a1.587,1.587,0,0,0-3.088,0c-1.057,4.552-2.528,5.038-4.753,5.773A1.587,1.587,0,0,0,13.539,76.064Zm6.3-3.876a7.652,7.652,0,0,0,2.065,2.384,7.417,7.417,0,0,0-2.043,2.3A7.776,7.776,0,0,0,17.7,74.593,7.417,7.417,0,0,0,19.842,72.187Z" transform="translate(-3.228 -20.177)" fill="#f0c020"/>
    <path id="Path_1320" data-name="Path 1320" d="M232.7,73.053c-2.082-.682-3.677-1.138-4.754-5.773a1.587,1.587,0,0,0-3.088,0c-1.057,4.552-2.528,5.038-4.753,5.773a1.587,1.587,0,0,0,0,3.011c3.7,1.222,4.117,3.032,4.753,5.773a1.586,1.586,0,0,0,3.089,0C229,77.285,230.47,76.8,232.7,76.064a1.587,1.587,0,0,0,0-3.011Zm-6.27,3.819a7.776,7.776,0,0,0-2.164-2.278,7.415,7.415,0,0,0,2.141-2.405,7.653,7.653,0,0,0,2.065,2.384A7.416,7.416,0,0,0,226.426,76.872Z" transform="translate(-78.804 -20.177)" fill="#f0c020"/>
  </g>
</svg>
